<?xml version="1.0" encoding="UTF-8"?>
<!DOCTYPE svg PUBLIC "-//W3C//DTD SVG 1.1//EN" "http://www.w3.org/Graphics/SVG/1.1/DTD/svg11.dtd">
<svg xmlns="http://www.w3.org/2000/svg" version="1.1" width="227px" height="280px" style="shape-rendering:geometricPrecision; text-rendering:geometricPrecision; image-rendering:optimizeQuality; fill-rule:evenodd; clip-rule:evenodd" xmlns:xlink="http://www.w3.org/1999/xlink">
<g><path style="opacity:0.844" fill="#faf9f9" d="M 68.5,-0.5 C 76.1667,-0.5 83.8333,-0.5 91.5,-0.5C 101.523,1.76682 110.023,6.76682 117,14.5C 118.527,17.5531 120.027,20.5531 121.5,23.5C 118.407,19.0729 114.407,15.7395 109.5,13.5C 108.199,12.0378 106.699,10.7044 105,9.5C 99.788,7.3219 94.6214,5.15523 89.5,3C 82.2118,3.06415 74.8785,2.56415 67.5,1.5C 67.8333,0.833333 68.1667,0.166667 68.5,-0.5 Z"/></g>
<g><path style="opacity:1" fill="#eaebf1" d="M 67.5,1.5 C 74.8785,2.56415 82.2118,3.06415 89.5,3C 94.6214,5.15523 99.788,7.3219 105,9.5C 106.699,10.7044 108.199,12.0378 109.5,13.5C 107.145,12.9056 104.978,11.9056 103,10.5C 101.578,11.2052 100.245,11.5385 99,11.5C 94.6546,8.58511 89.8213,6.58511 84.5,5.5C 76.4801,4.23854 68.4801,4.23854 60.5,5.5C 62.3356,3.41203 64.6689,2.0787 67.5,1.5 Z"/></g>
<g><path style="opacity:1" fill="#b3b8d2" d="M 84.5,5.5 C 85.5511,6.22235 86.2178,7.22235 86.5,8.5C 78.7307,5.40382 70.7307,4.73715 62.5,6.5C 60.1667,7.16667 57.8333,7.83333 55.5,8.5C 56.6594,6.74973 58.326,5.74973 60.5,5.5C 68.4801,4.23854 76.4801,4.23854 84.5,5.5 Z"/></g>
<g><path style="opacity:1" fill="#6a77a7" d="M 62.5,6.5 C 62.7828,7.28913 63.2828,7.9558 64,8.5C 76.5062,4.84236 86.6729,8.17569 94.5,18.5C 93.4688,19.7003 92.6355,21.0337 92,22.5C 91.1597,19.5363 90.1597,19.203 89,21.5C 88.6667,20.8333 88.3333,20.1667 88,19.5C 86.3333,20.8333 84.6667,22.1667 83,23.5C 82.6667,22.8333 82.3333,22.1667 82,21.5C 81.5,23.3333 80.3333,24.5 78.5,25C 78.8333,25.3333 79.1667,25.6667 79.5,26C 78.2986,26.9025 77.4652,28.0692 77,29.5C 76.3333,28.1667 75.6667,26.8333 75,25.5C 74.6458,27.8075 73.6458,28.1408 72,26.5C 70.5272,26.9031 69.1939,27.5697 68,28.5C 67.6258,27.5838 67.1258,26.7504 66.5,26C 64.1902,25.5034 61.8568,25.3367 59.5,25.5C 60.6082,23.3049 60.4415,21.3049 59,19.5C 58.3333,22.1667 57.6667,22.1667 57,19.5C 56.51,20.7932 56.3433,22.1266 56.5,23.5C 52.5924,22.0597 49.7591,19.393 48,15.5C 48.1503,17.5056 48.6503,19.5056 49.5,21.5C 47.9669,19.6452 46.3003,17.8119 44.5,16C 45.056,15.6174 45.3893,15.1174 45.5,14.5C 48.1612,11.4977 51.4945,9.4977 55.5,8.5C 57.8333,7.83333 60.1667,7.16667 62.5,6.5 Z"/></g>
<g><path style="opacity:1" fill="#d4d3e4" d="M 84.5,5.5 C 89.8213,6.58511 94.6546,8.58511 99,11.5C 100.245,11.5385 101.578,11.2052 103,10.5C 104.978,11.9056 107.145,12.9056 109.5,13.5C 114.407,15.7395 118.407,19.0729 121.5,23.5C 123.41,24.9746 124.576,26.9746 125,29.5C 126.429,35.5959 126.929,41.5959 126.5,47.5C 125.662,47.1583 125.328,46.4916 125.5,45.5C 124.699,43.9582 124.366,42.2915 124.5,40.5C 124.5,37.5 124.5,34.5 124.5,31.5C 123.325,31.719 122.325,31.3857 121.5,30.5C 120.055,25.9442 117.389,22.2776 113.5,19.5C 112.833,19.8333 112.167,20.1667 111.5,20.5C 110.756,19.0095 110.09,17.5095 109.5,16C 107.167,15.3333 104.833,15.3333 102.5,16C 101.874,16.7504 101.374,17.5838 101,18.5C 97.8333,15.3333 94.6667,12.1667 91.5,9C 90.2068,8.50999 88.8734,8.34332 87.5,8.5C 87.1667,8.5 86.8333,8.5 86.5,8.5C 86.2178,7.22235 85.5511,6.22235 84.5,5.5 Z"/></g>
<g><path style="opacity:1" fill="#c1c1de" d="M 87.5,8.5 C 88.8734,8.34332 90.2068,8.50999 91.5,9C 94.6667,12.1667 97.8333,15.3333 101,18.5C 101.374,17.5838 101.874,16.7504 102.5,16C 104.833,15.3333 107.167,15.3333 109.5,16C 110.09,17.5095 110.756,19.0095 111.5,20.5C 112.167,20.1667 112.833,19.8333 113.5,19.5C 117.389,22.2776 120.055,25.9442 121.5,30.5C 122.325,31.3857 123.325,31.719 124.5,31.5C 124.5,34.5 124.5,37.5 124.5,40.5C 122.825,37.3904 120.325,35.0571 117,33.5C 116.667,34.5 116.333,35.5 116,36.5C 114.895,31.3718 113.562,31.3718 112,36.5C 111.667,36.1667 111.333,35.8333 111,35.5C 110.667,36.8333 110.333,38.1667 110,39.5C 109.5,36.6621 108.5,33.6621 107,30.5C 106.617,31.056 106.117,31.3893 105.5,31.5C 101.756,22.0872 95.7564,14.4205 87.5,8.5 Z"/></g>
<g><path style="opacity:1" fill="#5c6896" d="M 86.5,8.5 C 86.8333,8.5 87.1667,8.5 87.5,8.5C 95.7564,14.4205 101.756,22.0872 105.5,31.5C 106.127,36.1408 106.46,40.8075 106.5,45.5C 106.167,45.5 105.833,45.5 105.5,45.5C 105.297,39.9463 104.13,34.6129 102,29.5C 100.956,31.7148 100.29,34.0481 100,36.5C 99.3333,35.1667 98.6667,33.8333 98,32.5C 97.6827,34.3008 97.016,34.6341 96,33.5C 92.7656,36.0306 90.7656,35.0306 90,30.5C 89.6827,32.3008 89.016,32.6341 88,31.5C 87.1376,33.087 86.4709,34.7536 86,36.5C 85.7508,35.376 85.2508,34.376 84.5,33.5C 82.0626,32.1912 80.5626,32.8578 80,35.5C 79,32.8333 78,32.8333 77,35.5C 76.6667,34.8333 76.3333,34.1667 76,33.5C 75.0197,34.9814 73.853,36.3147 72.5,37.5C 72.1667,36.8333 71.8333,36.1667 71.5,35.5C 68.2697,37.5682 65.103,37.2349 62,34.5C 60.0632,30.8371 58.2299,27.1705 56.5,23.5C 56.3433,22.1266 56.51,20.7932 57,19.5C 57.6667,22.1667 58.3333,22.1667 59,19.5C 60.4415,21.3049 60.6082,23.3049 59.5,25.5C 61.8568,25.3367 64.1902,25.5034 66.5,26C 67.1258,26.7504 67.6258,27.5838 68,28.5C 69.1939,27.5697 70.5272,26.9031 72,26.5C 73.6458,28.1408 74.6458,27.8075 75,25.5C 75.6667,26.8333 76.3333,28.1667 77,29.5C 77.4652,28.0692 78.2986,26.9025 79.5,26C 79.1667,25.6667 78.8333,25.3333 78.5,25C 80.3333,24.5 81.5,23.3333 82,21.5C 82.3333,22.1667 82.6667,22.8333 83,23.5C 84.6667,22.1667 86.3333,20.8333 88,19.5C 88.3333,20.1667 88.6667,20.8333 89,21.5C 90.1597,19.203 91.1597,19.5363 92,22.5C 92.6355,21.0337 93.4688,19.7003 94.5,18.5C 86.6729,8.17569 76.5062,4.84236 64,8.5C 63.2828,7.9558 62.7828,7.28913 62.5,6.5C 70.7307,4.73715 78.7307,5.40382 86.5,8.5 Z"/></g>
<g><path style="opacity:1" fill="#4e5c8b" d="M 56.5,23.5 C 58.2299,27.1705 60.0632,30.8371 62,34.5C 65.103,37.2349 68.2697,37.5682 71.5,35.5C 71.8333,36.1667 72.1667,36.8333 72.5,37.5C 73.853,36.3147 75.0197,34.9814 76,33.5C 76.3333,34.1667 76.6667,34.8333 77,35.5C 78,32.8333 79,32.8333 80,35.5C 80.5626,32.8578 82.0626,32.1912 84.5,33.5C 85.2508,34.376 85.7508,35.376 86,36.5C 86.4709,34.7536 87.1376,33.087 88,31.5C 89.016,32.6341 89.6827,32.3008 90,30.5C 90.7656,35.0306 92.7656,36.0306 96,33.5C 97.016,34.6341 97.6827,34.3008 98,32.5C 98.6667,33.8333 99.3333,35.1667 100,36.5C 100.29,34.0481 100.956,31.7148 102,29.5C 104.13,34.6129 105.297,39.9463 105.5,45.5C 104.5,45.5 103.5,45.5 102.5,45.5C 102.586,44.5041 102.252,43.6708 101.5,43C 103.929,42.5488 104.096,41.7155 102,40.5C 100.984,41.6341 100.317,41.3008 100,39.5C 99.6529,43.1162 98.4862,43.7828 96.5,41.5C 94.9299,41.6938 93.4299,41.6938 92,41.5C 88.56,44.6402 84.8933,46.6402 81,47.5C 79.7964,46.5294 79.2964,45.5294 79.5,44.5C 77.4824,46.3501 75.6491,48.3501 74,50.5C 73.7167,47.2577 72.8834,46.9244 71.5,49.5C 72.304,50.9411 72.9706,52.4411 73.5,54C 71.8225,56.5466 71.1559,59.3799 71.5,62.5C 72.8333,62.5 74.1667,62.5 75.5,62.5C 75.3398,60.8008 75.5065,59.1341 76,57.5C 76.7581,59.7695 76.5914,61.9361 75.5,64C 76.0442,64.7172 76.7109,65.2172 77.5,65.5C 76.7629,67.3046 75.7629,68.9713 74.5,70.5C 71.9688,65.5635 69.6354,60.5635 67.5,55.5C 66.8505,53.5648 66.5172,51.5648 66.5,49.5C 65.5792,44.9862 64.0792,40.6529 62,36.5C 60.669,34.0038 58.8356,32.0038 56.5,30.5C 55.1944,27.6613 53.1944,25.3279 50.5,23.5C 50.1667,22.8333 49.8333,22.1667 49.5,21.5C 48.6503,19.5056 48.1503,17.5056 48,15.5C 49.7591,19.393 52.5924,22.0597 56.5,23.5 Z"/></g>
<g><path style="opacity:1" fill="#afb4d6" d="M 124.5,40.5 C 124.366,42.2915 124.699,43.9582 125.5,45.5C 124.662,45.8417 124.328,46.5084 124.5,47.5C 123.883,47.6107 123.383,47.944 123,48.5C 122.809,46.2922 122.309,44.2922 121.5,42.5C 120.688,41.0069 119.355,40.3402 117.5,40.5C 114.11,41.0297 111.11,42.363 108.5,44.5C 107.833,44.8333 107.167,45.1667 106.5,45.5C 106.46,40.8075 106.127,36.1408 105.5,31.5C 106.117,31.3893 106.617,31.056 107,30.5C 108.5,33.6621 109.5,36.6621 110,39.5C 110.333,38.1667 110.667,36.8333 111,35.5C 111.333,35.8333 111.667,36.1667 112,36.5C 113.562,31.3718 114.895,31.3718 116,36.5C 116.333,35.5 116.667,34.5 117,33.5C 120.325,35.0571 122.825,37.3904 124.5,40.5 Z"/></g>
<g><path style="opacity:1" fill="#777fa5" d="M 56.5,30.5 C 58.8356,32.0038 60.669,34.0038 62,36.5C 64.0792,40.6529 65.5792,44.9862 66.5,49.5C 63.889,45.9392 62.0557,41.9392 61,37.5C 60.0513,35.9069 58.8846,34.5736 57.5,33.5C 56.8902,32.609 56.5569,31.609 56.5,30.5 Z"/></g>
<g><path style="opacity:1" fill="#e3e6ef" d="M 45.5,14.5 C 45.3893,15.1174 45.056,15.6174 44.5,16C 46.3003,17.8119 47.9669,19.6452 49.5,21.5C 49.8333,22.1667 50.1667,22.8333 50.5,23.5C 53.1319,27.3854 54.7985,31.7187 55.5,36.5C 55.4207,37.9584 54.9207,39.2917 54,40.5C 52.2028,37.9041 50.8695,38.2374 50,41.5C 49.3741,39.0087 48.5407,39.0087 47.5,41.5C 47.0894,40.7376 46.9227,39.7376 47,38.5C 46.0975,39.7014 44.9308,40.5348 43.5,41C 45.3632,42.4178 45.8632,44.2511 45,46.5C 44.6667,45.8333 44.3333,45.1667 44,44.5C 43.5811,48.8518 42.9145,49.1851 42,45.5C 41.5609,48.2993 40.2276,49.2993 38,48.5C 38.9791,50.2785 38.6458,51.9452 37,53.5C 36,52.5 35,51.5 34,50.5C 32.8456,52.9574 31.5123,52.9574 30,50.5C 29.586,50.9574 29.086,51.2907 28.5,51.5C 28.4669,50.011 27.9669,48.6776 27,47.5C 26.6667,48.1667 26.3333,48.8333 26,49.5C 25.3333,48.1667 24.6667,48.1667 24,49.5C 23.6667,48.1667 23.3333,46.8333 23,45.5C 22.5357,46.0944 22.369,46.7611 22.5,47.5C 21.4026,42.9874 21.4026,38.3208 22.5,33.5C 22.5569,32.391 22.8902,31.391 23.5,30.5C 24.4333,27.6298 26.1,25.2964 28.5,23.5C 28.0431,22.7025 27.3764,22.3691 26.5,22.5C 32.6502,19.5972 38.9835,16.9305 45.5,14.5 Z"/></g>
<g><path style="opacity:1" fill="#5e6791" d="M 26.5,22.5 C 27.3764,22.3691 28.0431,22.7025 28.5,23.5C 26.1,25.2964 24.4333,27.6298 23.5,30.5C 19.9101,32.301 17.7434,35.301 17,39.5C 15.9067,47.2465 14.4067,54.9132 12.5,62.5C 11.914,62.2907 11.414,61.9574 11,61.5C 10.6667,58.5 10.3333,55.5 10,52.5C 8.66813,56.6584 7.00147,60.6584 5,64.5C 3.77409,69.4937 4.60742,73.9937 7.5,78C 7.01087,79.1385 6.67754,80.3052 6.5,81.5C 3.85284,76.7982 2.51951,71.6315 2.5,66C 3.51901,47.5203 11.519,33.0203 26.5,22.5 Z"/></g>
<g><path style="opacity:1" fill="#2e3e6f" d="M 121.5,42.5 C 121.64,44.1238 120.973,45.2904 119.5,46C 120.428,46.3879 121.095,47.0546 121.5,48C 120.305,49.5325 120.305,51.0325 121.5,52.5C 118.505,54.338 115.671,56.338 113,58.5C 111.696,53.7242 110.196,49.0575 108.5,44.5C 111.11,42.363 114.11,41.0297 117.5,40.5C 119.355,40.3402 120.688,41.0069 121.5,42.5 Z"/></g>
<g><path style="opacity:1" fill="#3c4d7e" d="M 102.5,45.5 C 93.561,49.8113 85.8943,55.8113 79.5,63.5C 79.1667,64.5 78.5,65.1667 77.5,65.5C 76.7109,65.2172 76.0442,64.7172 75.5,64C 76.5914,61.9361 76.7581,59.7695 76,57.5C 75.5065,59.1341 75.3398,60.8008 75.5,62.5C 74.1667,62.5 72.8333,62.5 71.5,62.5C 71.1559,59.3799 71.8225,56.5466 73.5,54C 72.9706,52.4411 72.304,50.9411 71.5,49.5C 72.8834,46.9244 73.7167,47.2577 74,50.5C 75.6491,48.3501 77.4824,46.3501 79.5,44.5C 79.2964,45.5294 79.7964,46.5294 81,47.5C 84.8933,46.6402 88.56,44.6402 92,41.5C 93.4299,41.6938 94.9299,41.6938 96.5,41.5C 98.4862,43.7828 99.6529,43.1162 100,39.5C 100.317,41.3008 100.984,41.6341 102,40.5C 104.096,41.7155 103.929,42.5488 101.5,43C 102.252,43.6708 102.586,44.5041 102.5,45.5 Z"/></g>
<g><path style="opacity:1" fill="#9ca4c4" d="M 102.5,45.5 C 103.5,45.5 104.5,45.5 105.5,45.5C 105.833,45.5 106.167,45.5 106.5,45.5C 107.73,47.2972 108.396,49.2972 108.5,51.5C 107.069,51.8807 106.236,52.8807 106,54.5C 105.667,53.8333 105.333,53.1667 105,52.5C 104.141,55.4308 102.475,56.4308 100,55.5C 99.0546,55.9054 98.3879,56.572 98,57.5C 97.0255,55.1224 96.3589,55.4557 96,58.5C 94.2434,58.1329 92.7434,58.9662 91.5,61C 89.8988,61.2734 88.3988,61.7734 87,62.5C 86.6667,62.1667 86.3333,61.8333 86,61.5C 85,62.5 84,63.5 83,64.5C 82.6667,63.8333 82.3333,63.1667 82,62.5C 81.3292,63.2524 80.4959,63.5858 79.5,63.5C 85.8943,55.8113 93.561,49.8113 102.5,45.5 Z"/></g>
<g><path style="opacity:1" fill="#48567f" d="M 23.5,30.5 C 22.8902,31.391 22.5569,32.391 22.5,33.5C 20.9261,35.1016 20.2594,37.1016 20.5,39.5C 19.7321,40.2625 19.2321,41.2625 19,42.5C 18.5012,46.4862 18.3345,50.4862 18.5,54.5C 17.6862,52.369 17.1862,50.0356 17,47.5C 16.6667,53.8333 16.3333,60.1667 16,66.5C 15.6924,65.6919 15.1924,65.0253 14.5,64.5C 13.6786,67.4465 13.1786,70.4465 13,73.5C 10.7052,65.7353 8.53856,65.902 6.5,74C 8.18022,74.3468 9.18022,75.3468 9.5,77C 8.46501,80.2456 8.46501,83.7456 9.5,87.5C 7.46095,86.089 6.46095,84.089 6.5,81.5C 6.67754,80.3052 7.01087,79.1385 7.5,78C 4.60742,73.9937 3.77409,69.4937 5,64.5C 7.00147,60.6584 8.66813,56.6584 10,52.5C 10.3333,55.5 10.6667,58.5 11,61.5C 11.414,61.9574 11.914,62.2907 12.5,62.5C 14.4067,54.9132 15.9067,47.2465 17,39.5C 17.7434,35.301 19.9101,32.301 23.5,30.5 Z"/></g>
<g><path style="opacity:1" fill="#d0cee4" d="M 50.5,23.5 C 53.1944,25.3279 55.1944,27.6613 56.5,30.5C 56.5569,31.609 56.8902,32.609 57.5,33.5C 57.937,36.8594 58.937,40.0261 60.5,43C 59.6435,45.4099 58.3102,46.5766 56.5,46.5C 57.376,47.2508 58.376,47.7508 59.5,48C 57.6992,48.3173 57.3659,48.984 58.5,50C 58.4182,53.9158 56.4182,56.0825 52.5,56.5C 51.6143,57.325 51.281,58.325 51.5,59.5C 48.7615,58.9648 46.9282,59.9648 46,62.5C 45.5774,61.0439 44.7441,60.5439 43.5,61C 42.3595,61.7412 42.3595,62.5745 43.5,63.5C 41.8513,64.6477 40.3513,65.981 39,67.5C 38.6667,67.1667 38.3333,66.8333 38,66.5C 37.5172,67.448 37.3505,68.448 37.5,69.5C 36.1779,69.67 35.0113,69.3366 34,68.5C 32.6349,73.4396 31.4682,73.7729 30.5,69.5C 29.8182,70.2427 29.1515,70.9094 28.5,71.5C 25.7585,68.466 24.2585,64.7993 24,60.5C 23,59.5 22,58.5 21,57.5C 20.5005,51.5092 20.3338,45.5092 20.5,39.5C 20.2594,37.1016 20.9261,35.1016 22.5,33.5C 21.4026,38.3208 21.4026,42.9874 22.5,47.5C 22.0196,50.6852 22.6863,53.5185 24.5,56C 34.0799,58.7052 41.7466,56.0385 47.5,48C 49.7271,47.879 51.5604,47.0456 53,45.5C 53.3333,46.5 53.6667,47.5 54,48.5C 54.636,45.3052 55.8027,42.4719 57.5,40C 57.6134,38.3009 56.9468,37.1342 55.5,36.5C 54.7985,31.7187 53.1319,27.3854 50.5,23.5 Z"/></g>
<g><path style="opacity:1" fill="#d8dae7" d="M 55.5,36.5 C 56.9468,37.1342 57.6134,38.3009 57.5,40C 55.8027,42.4719 54.636,45.3052 54,48.5C 53.6667,47.5 53.3333,46.5 53,45.5C 51.5604,47.0456 49.7271,47.879 47.5,48C 41.7466,56.0385 34.0799,58.7052 24.5,56C 22.6863,53.5185 22.0196,50.6852 22.5,47.5C 22.369,46.7611 22.5357,46.0944 23,45.5C 23.3333,46.8333 23.6667,48.1667 24,49.5C 24.6667,48.1667 25.3333,48.1667 26,49.5C 26.3333,48.8333 26.6667,48.1667 27,47.5C 27.9669,48.6776 28.4669,50.011 28.5,51.5C 29.086,51.2907 29.586,50.9574 30,50.5C 31.5123,52.9574 32.8456,52.9574 34,50.5C 35,51.5 36,52.5 37,53.5C 38.6458,51.9452 38.9791,50.2785 38,48.5C 40.2276,49.2993 41.5609,48.2993 42,45.5C 42.9145,49.1851 43.5811,48.8518 44,44.5C 44.3333,45.1667 44.6667,45.8333 45,46.5C 45.8632,44.2511 45.3632,42.4178 43.5,41C 44.9308,40.5348 46.0975,39.7014 47,38.5C 46.9227,39.7376 47.0894,40.7376 47.5,41.5C 48.5407,39.0087 49.3741,39.0087 50,41.5C 50.8695,38.2374 52.2028,37.9041 54,40.5C 54.9207,39.2917 55.4207,37.9584 55.5,36.5 Z"/></g>
<g><path style="opacity:1" fill="#434f7b" d="M 121.5,42.5 C 122.309,44.2922 122.809,46.2922 123,48.5C 123.383,47.944 123.883,47.6107 124.5,47.5C 124.42,55.8866 123.753,64.22 122.5,72.5C 121.35,73.8502 120.683,73.6836 120.5,72C 121.71,68.8256 121.71,65.659 120.5,62.5C 118.354,68.0933 116.688,73.76 115.5,79.5C 115.784,77.5853 115.451,75.9187 114.5,74.5C 114.802,71.9407 114.468,69.6074 113.5,67.5C 113.44,64.6592 112.774,61.9925 111.5,59.5C 111.097,56.5145 110.097,53.8478 108.5,51.5C 108.396,49.2972 107.73,47.2972 106.5,45.5C 107.167,45.1667 107.833,44.8333 108.5,44.5C 110.196,49.0575 111.696,53.7242 113,58.5C 115.671,56.338 118.505,54.338 121.5,52.5C 120.305,51.0325 120.305,49.5325 121.5,48C 121.095,47.0546 120.428,46.3879 119.5,46C 120.973,45.2904 121.64,44.1238 121.5,42.5 Z"/></g>
<g><path style="opacity:1" fill="#576c88" d="M 125.5,45.5 C 125.328,46.4916 125.662,47.1583 126.5,47.5C 126.5,50.5 126.5,53.5 126.5,56.5C 125.741,60.4767 125.075,64.4767 124.5,68.5C 124.34,70.153 123.674,71.4863 122.5,72.5C 123.753,64.22 124.42,55.8866 124.5,47.5C 124.328,46.5084 124.662,45.8417 125.5,45.5 Z"/></g>
<g><path style="opacity:1" fill="#cac7e2" d="M 57.5,33.5 C 58.8846,34.5736 60.0513,35.9069 61,37.5C 62.0557,41.9392 63.889,45.9392 66.5,49.5C 66.5172,51.5648 66.8505,53.5648 67.5,55.5C 68.3057,61.3479 69.3057,66.5146 70.5,71C 68.5837,73.09 66.5837,74.9233 64.5,76.5C 64.067,73.8344 63.567,71.1677 63,68.5C 62.9546,71.334 62.1213,73.834 60.5,76C 62.6195,80.2515 62.9528,81.0848 61.5,78.5C 59.8561,78.2865 58.3561,78.6198 57,79.5C 56.6667,78.5 56.3333,77.5 56,76.5C 55,78.1667 54,79.8333 53,81.5C 52,79.8333 51,78.1667 50,76.5C 49.6667,76.8333 49.3333,77.1667 49,77.5C 47.9032,75.9474 46.5699,74.614 45,73.5C 45.2039,78.5628 43.5373,79.2295 40,75.5C 39.6667,76.5 39.3333,77.5 39,78.5C 37.9365,74.7054 35.4365,73.5388 31.5,75C 31,75.5 30.5,76 30,76.5C 29.5348,75.0692 28.7014,73.9025 27.5,73C 28.056,72.6174 28.3893,72.1174 28.5,71.5C 29.1515,70.9094 29.8182,70.2427 30.5,69.5C 31.4682,73.7729 32.6349,73.4396 34,68.5C 35.0113,69.3366 36.1779,69.67 37.5,69.5C 37.3505,68.448 37.5172,67.448 38,66.5C 38.3333,66.8333 38.6667,67.1667 39,67.5C 40.3513,65.981 41.8513,64.6477 43.5,63.5C 42.3595,62.5745 42.3595,61.7412 43.5,61C 44.7441,60.5439 45.5774,61.0439 46,62.5C 46.9282,59.9648 48.7615,58.9648 51.5,59.5C 51.281,58.325 51.6143,57.325 52.5,56.5C 56.4182,56.0825 58.4182,53.9158 58.5,50C 57.3659,48.984 57.6992,48.3173 59.5,48C 58.376,47.7508 57.376,47.2508 56.5,46.5C 58.3102,46.5766 59.6435,45.4099 60.5,43C 58.937,40.0261 57.937,36.8594 57.5,33.5 Z"/></g>
<g><path style="opacity:1" fill="#97e4b9" d="M 126.5,56.5 C 135.747,57.6393 144.414,60.306 152.5,64.5C 149.921,64.0833 147.754,64.75 146,66.5C 145.586,66.0426 145.086,65.7093 144.5,65.5C 143.462,67.4435 142.129,68.9435 140.5,70C 143.014,71.2525 145.68,71.7525 148.5,71.5C 148.831,73.3224 149.498,74.9891 150.5,76.5C 143.026,73.0099 135.359,70.3432 127.5,68.5C 126.5,68.5 125.5,68.5 124.5,68.5C 125.075,64.4767 125.741,60.4767 126.5,56.5 Z"/></g>
<g><path style="opacity:1" fill="#91eab4" d="M 127.5,68.5 C 126.54,65.235 126.54,61.9017 127.5,58.5C 132.099,60.7158 137.099,61.8825 142.5,62C 142.957,62.414 143.291,62.914 143.5,63.5C 141.322,64.9787 138.988,66.312 136.5,67.5C 133.572,68.4841 130.572,68.8174 127.5,68.5 Z"/></g>
<g><path style="opacity:1" fill="#d4d7e7" d="M 111.5,59.5 C 112.774,61.9925 113.44,64.6592 113.5,67.5C 112.596,66.791 112.263,65.791 112.5,64.5C 109.846,66.2874 107.013,67.9541 104,69.5C 103,69.1667 102,68.8333 101,68.5C 97.601,71.2281 93.9343,73.5615 90,75.5C 89.6667,75.1667 89.3333,74.8333 89,74.5C 89.1484,75.825 88.9817,76.9916 88.5,78C 96.6434,78.8847 105.31,79.3847 114.5,79.5C 111.375,80.4794 108.042,80.8128 104.5,80.5C 98.4836,80.4075 92.4836,80.0742 86.5,79.5C 84.3021,78.8347 81.9688,78.1681 79.5,77.5C 80,76.5 80.5,75.5 81,74.5C 85.9083,72.5347 90.9083,69.868 96,66.5C 96.772,66.6448 97.4387,66.9781 98,67.5C 99.1096,65.9632 100.61,65.2965 102.5,65.5C 102.33,64.1779 102.663,63.0113 103.5,62C 105.718,60.9094 107.884,59.7427 110,58.5C 110.383,59.056 110.883,59.3893 111.5,59.5 Z"/></g>
<g><path style="opacity:1" fill="#414e7c" d="M 18.5,54.5 C 21.6782,67.5176 27.0115,79.5176 34.5,90.5C 37.1603,94.4822 39.827,98.4822 42.5,102.5C 40.9557,102.297 39.6223,101.63 38.5,100.5C 36.8499,96.6587 34.3499,94.3254 31,93.5C 30.6667,94.1667 30.3333,94.8333 30,95.5C 29.3162,94.2161 29.4829,93.0495 30.5,92C 29.5,91.6667 28.5,91.3333 27.5,91C 27.8333,90.6667 28.1667,90.3333 28.5,90C 27.5838,89.6258 26.7504,89.1258 26,88.5C 26.0773,89.7376 25.9106,90.7376 25.5,91.5C 24.2528,89.9936 24.2528,88.4936 25.5,87C 22.0569,86.7787 21.7236,85.7787 24.5,84C 23.2845,81.9045 22.4512,82.0712 22,84.5C 21.6667,83.8333 21.3333,83.1667 21,82.5C 19.4626,82.0874 17.7959,82.0874 16,82.5C 15.4536,81.7107 14.7869,80.7107 14,79.5C 13.526,81.7871 12.3593,84.1205 10.5,86.5C 12.1759,87.7276 12.5092,89.0609 11.5,90.5C 10.0937,90.0269 9.42702,89.0269 9.5,87.5C 8.46501,83.7456 8.46501,80.2456 9.5,77C 9.18022,75.3468 8.18022,74.3468 6.5,74C 8.53856,65.902 10.7052,65.7353 13,73.5C 13.1786,70.4465 13.6786,67.4465 14.5,64.5C 15.1924,65.0253 15.6924,65.6919 16,66.5C 16.3333,60.1667 16.6667,53.8333 17,47.5C 17.1862,50.0356 17.6862,52.369 18.5,54.5 Z"/></g>
<g><path style="opacity:1" fill="#b3b6d4" d="M 108.5,51.5 C 110.097,53.8478 111.097,56.5145 111.5,59.5C 110.883,59.3893 110.383,59.056 110,58.5C 107.884,59.7427 105.718,60.9094 103.5,62C 102.663,63.0113 102.33,64.1779 102.5,65.5C 100.61,65.2965 99.1096,65.9632 98,67.5C 97.4387,66.9781 96.772,66.6448 96,66.5C 90.9083,69.868 85.9083,72.5347 81,74.5C 80.5,75.5 80,76.5 79.5,77.5C 81.9688,78.1681 84.3021,78.8347 86.5,79.5C 80.1318,79.1703 73.7985,79.5037 67.5,80.5C 62.1833,90.137 57.1833,99.8036 52.5,109.5C 51.5,110.167 50.5,110.833 49.5,111.5C 48.3248,107.651 45.9914,104.651 42.5,102.5C 39.827,98.4822 37.1603,94.4822 34.5,90.5C 35.8221,90.67 36.9887,90.3366 38,89.5C 38.1705,91.7148 38.8372,93.7148 40,95.5C 39.208,92.8089 39.5413,90.1422 41,87.5C 42.3764,90.0533 43.5431,92.7199 44.5,95.5C 45.1667,95.1667 45.8333,94.8333 46.5,94.5C 47.7701,95.5622 48.9367,96.5622 50,97.5C 50.9145,93.8149 51.5811,94.1482 52,98.5C 52.3333,98.1667 52.6667,97.8333 53,97.5C 53.2492,98.624 53.7492,99.624 54.5,100.5C 55.9572,96.5561 57.2906,92.5561 58.5,88.5C 61.3309,86.5603 63.6642,83.5603 65.5,79.5C 64.8728,78.5832 64.5394,77.5832 64.5,76.5C 66.5837,74.9233 68.5837,73.09 70.5,71C 69.3057,66.5146 68.3057,61.3479 67.5,55.5C 69.6354,60.5635 71.9688,65.5635 74.5,70.5C 75.7629,68.9713 76.7629,67.3046 77.5,65.5C 78.5,65.1667 79.1667,64.5 79.5,63.5C 80.4959,63.5858 81.3292,63.2524 82,62.5C 82.3333,63.1667 82.6667,63.8333 83,64.5C 84,63.5 85,62.5 86,61.5C 86.3333,61.8333 86.6667,62.1667 87,62.5C 88.3988,61.7734 89.8988,61.2734 91.5,61C 92.7434,58.9662 94.2434,58.1329 96,58.5C 96.3589,55.4557 97.0255,55.1224 98,57.5C 98.3879,56.572 99.0546,55.9054 100,55.5C 102.475,56.4308 104.141,55.4308 105,52.5C 105.333,53.1667 105.667,53.8333 106,54.5C 106.236,52.8807 107.069,51.8807 108.5,51.5 Z"/></g>
<g><path style="opacity:1" fill="#5b6891" d="M 122.5,72.5 C 121.325,76.1826 119.659,79.5159 117.5,82.5C 117.158,81.6618 116.492,81.3284 115.5,81.5C 115.5,80.8333 115.5,80.1667 115.5,79.5C 116.688,73.76 118.354,68.0933 120.5,62.5C 121.71,65.659 121.71,68.8256 120.5,72C 120.683,73.6836 121.35,73.8502 122.5,72.5 Z"/></g>
<g><path style="opacity:1" fill="#f3f6f8" d="M 113.5,67.5 C 114.468,69.6074 114.802,71.9407 114.5,74.5C 114.5,76.1667 114.5,77.8333 114.5,79.5C 105.31,79.3847 96.6434,78.8847 88.5,78C 88.9817,76.9916 89.1484,75.825 89,74.5C 89.3333,74.8333 89.6667,75.1667 90,75.5C 93.9343,73.5615 97.601,71.2281 101,68.5C 102,68.8333 103,69.1667 104,69.5C 107.013,67.9541 109.846,66.2874 112.5,64.5C 112.263,65.791 112.596,66.791 113.5,67.5 Z"/></g>
<g><path style="opacity:1" fill="#1c393f" d="M 124.5,68.5 C 125.5,68.5 126.5,68.5 127.5,68.5C 135.359,70.3432 143.026,73.0099 150.5,76.5C 151.833,77.1667 153.167,77.8333 154.5,78.5C 155.252,80.1003 156.252,81.6003 157.5,83C 161.856,85.178 166.189,87.3447 170.5,89.5C 176.87,94.8695 182.537,100.869 187.5,107.5C 187.5,107.833 187.5,108.167 187.5,108.5C 186.799,112.819 187.966,116.486 191,119.5C 191.333,119.167 191.667,118.833 192,118.5C 193.548,121.206 194.714,124.04 195.5,127C 193.579,128.241 193.246,129.741 194.5,131.5C 195.167,130.5 195.833,129.5 196.5,128.5C 197.324,131.785 197.824,135.118 198,138.5C 198.388,140.715 199.388,142.048 201,142.5C 201.667,154.833 201.667,167.167 201,179.5C 199.561,181.275 198.561,183.275 198,185.5C 196.91,171.811 196.41,158.144 196.5,144.5C 194.111,150.253 193.111,156.253 193.5,162.5C 194.092,168.417 194.092,174.25 193.5,180C 194.436,185.883 195.269,191.716 196,197.5C 194.37,201.059 192.37,204.392 190,207.5C 188.703,206.216 187.536,206.383 186.5,208C 187.081,208.893 187.415,209.893 187.5,211C 186.742,215.717 184.075,218.55 179.5,219.5C 180.246,220.736 180.579,222.07 180.5,223.5C 178.5,226.167 176.167,228.5 173.5,230.5C 171.856,230.714 170.356,230.38 169,229.5C 168.506,231.134 168.34,232.801 168.5,234.5C 164.261,233.789 161.594,235.456 160.5,239.5C 158.465,240.041 156.465,240.708 154.5,241.5C 152.05,243.503 149.717,245.503 147.5,247.5C 145.703,248.73 143.703,249.396 141.5,249.5C 131.709,251.734 121.875,253.401 112,254.5C 109.5,254.333 107,254.167 104.5,254C 101.099,250.652 97.0993,249.819 92.5,251.5C 86.0797,250.16 79.7463,248.827 73.5,247.5C 73.1667,247.5 72.8333,247.5 72.5,247.5C 64.3335,243.587 56.6668,238.92 49.5,233.5C 44.7932,228.795 40.4599,223.795 36.5,218.5C 33.279,212.077 29.779,205.743 26,199.5C 23.4982,194.32 21.9982,188.82 21.5,183C 20.3246,181.141 19.3246,179.308 18.5,177.5C 17.683,168.191 17.3496,158.857 17.5,149.5C 17.5172,147.435 17.8505,145.435 18.5,143.5C 20.8486,138.781 22.6819,133.781 24,128.5C 27.4708,122.244 30.3041,115.91 32.5,109.5C 32.5,109.167 32.5,108.833 32.5,108.5C 38.2228,109.379 43.8895,110.379 49.5,111.5C 60.8503,121.514 72.5169,131.181 84.5,140.5C 77.1281,150.984 73.9615,162.651 75,175.5C 76.0151,179.895 77.1818,184.229 78.5,188.5C 81.117,196.086 85.4503,202.42 91.5,207.5C 96.1554,213.484 102.155,217.484 109.5,219.5C 120.428,223.636 131.428,223.469 142.5,219C 147.348,216.65 151.015,213.15 153.5,208.5C 157.075,205.35 159.075,201.35 159.5,196.5C 162.891,188.605 163.224,180.605 160.5,172.5C 154.828,147.827 139.494,133.494 114.5,129.5C 115.435,113.823 116.435,98.1562 117.5,82.5C 119.659,79.5159 121.325,76.1826 122.5,72.5C 123.674,71.4863 124.34,70.153 124.5,68.5 Z"/></g>
<g><path style="opacity:1" fill="#1d393f" d="M 86.5,79.5 C 92.4836,80.0742 98.4836,80.4075 104.5,80.5C 107.287,81.4767 110.287,81.81 113.5,81.5C 113.5,83.5 113.5,85.5 113.5,87.5C 112.216,101.523 110.883,115.523 109.5,129.5C 101.003,129.774 93.67,132.774 87.5,138.5C 76.3955,128.12 64.7289,118.453 52.5,109.5C 57.1833,99.8036 62.1833,90.137 67.5,80.5C 73.7985,79.5037 80.1318,79.1703 86.5,79.5 Z"/></g>
<g><path style="opacity:1" fill="#9eaaba" d="M 114.5,74.5 C 115.451,75.9187 115.784,77.5853 115.5,79.5C 115.5,80.1667 115.5,80.8333 115.5,81.5C 114.833,83.5 114.167,85.5 113.5,87.5C 113.5,85.5 113.5,83.5 113.5,81.5C 110.287,81.81 107.287,81.4767 104.5,80.5C 108.042,80.8128 111.375,80.4794 114.5,79.5C 114.5,77.8333 114.5,76.1667 114.5,74.5 Z"/></g>
<g><path style="opacity:1" fill="#194b3c" d="M 154.5,78.5 C 160.406,81.4187 165.74,85.0854 170.5,89.5C 166.189,87.3447 161.856,85.178 157.5,83C 156.252,81.6003 155.252,80.1003 154.5,78.5 Z"/></g>
<g><path style="opacity:1" fill="#bebdda" d="M 20.5,39.5 C 20.3338,45.5092 20.5005,51.5092 21,57.5C 22,58.5 23,59.5 24,60.5C 24.2585,64.7993 25.7585,68.466 28.5,71.5C 28.3893,72.1174 28.056,72.6174 27.5,73C 28.7014,73.9025 29.5348,75.0692 30,76.5C 30.5,76 31,75.5 31.5,75C 35.4365,73.5388 37.9365,74.7054 39,78.5C 39.3333,77.5 39.6667,76.5 40,75.5C 43.5373,79.2295 45.2039,78.5628 45,73.5C 46.5699,74.614 47.9032,75.9474 49,77.5C 49.3333,77.1667 49.6667,76.8333 50,76.5C 51,78.1667 52,79.8333 53,81.5C 54,79.8333 55,78.1667 56,76.5C 56.3333,77.5 56.6667,78.5 57,79.5C 58.3561,78.6198 59.8561,78.2865 61.5,78.5C 62.9528,81.0848 62.6195,80.2515 60.5,76C 62.1213,73.834 62.9546,71.334 63,68.5C 63.567,71.1677 64.067,73.8344 64.5,76.5C 64.5394,77.5832 64.8728,78.5832 65.5,79.5C 63.6642,83.5603 61.3309,86.5603 58.5,88.5C 57.2906,92.5561 55.9572,96.5561 54.5,100.5C 53.7492,99.624 53.2492,98.624 53,97.5C 52.6667,97.8333 52.3333,98.1667 52,98.5C 51.5811,94.1482 50.9145,93.8149 50,97.5C 48.9367,96.5622 47.7701,95.5622 46.5,94.5C 45.8333,94.8333 45.1667,95.1667 44.5,95.5C 43.5431,92.7199 42.3764,90.0533 41,87.5C 39.5413,90.1422 39.208,92.8089 40,95.5C 38.8372,93.7148 38.1705,91.7148 38,89.5C 36.9887,90.3366 35.8221,90.67 34.5,90.5C 27.0115,79.5176 21.6782,67.5176 18.5,54.5C 18.3345,50.4862 18.5012,46.4862 19,42.5C 19.2321,41.2625 19.7321,40.2625 20.5,39.5 Z"/></g>
<g><path style="opacity:1" fill="#364475" d="M 42.5,102.5 C 41.8716,105.955 39.8716,107.122 36.5,106C 32.1755,104.515 29.5089,101.682 28.5,97.5C 26.3337,97.5789 24.3337,98.2455 22.5,99.5C 21.5,98.1667 20.5,96.8333 19.5,95.5C 18.2867,95.7472 17.62,96.4138 17.5,97.5C 14.7573,95.7607 12.7573,93.4274 11.5,90.5C 12.5092,89.0609 12.1759,87.7276 10.5,86.5C 12.3593,84.1205 13.526,81.7871 14,79.5C 14.7869,80.7107 15.4536,81.7107 16,82.5C 17.7959,82.0874 19.4626,82.0874 21,82.5C 21.3333,83.1667 21.6667,83.8333 22,84.5C 22.4512,82.0712 23.2845,81.9045 24.5,84C 21.7236,85.7787 22.0569,86.7787 25.5,87C 24.2528,88.4936 24.2528,89.9936 25.5,91.5C 25.9106,90.7376 26.0773,89.7376 26,88.5C 26.7504,89.1258 27.5838,89.6258 28.5,90C 28.1667,90.3333 27.8333,90.6667 27.5,91C 28.5,91.3333 29.5,91.6667 30.5,92C 29.4829,93.0495 29.3162,94.2161 30,95.5C 30.3333,94.8333 30.6667,94.1667 31,93.5C 34.3499,94.3254 36.8499,96.6587 38.5,100.5C 39.6223,101.63 40.9557,102.297 42.5,102.5 Z"/></g>
<g><path style="opacity:1" fill="#a0e8be" d="M 175.5,77.5 C 195.235,92.9576 207.901,112.958 213.5,137.5C 212.85,137.804 212.183,138.137 211.5,138.5C 210.675,134.878 210.175,131.211 210,127.5C 208.214,125.119 207.047,122.452 206.5,119.5C 204.944,117.299 203.777,117.299 203,119.5C 201,118.5 201,117.5 203,116.5C 203.667,114.833 203.667,113.167 203,111.5C 200.501,109.336 198.668,106.669 197.5,103.5C 193.688,101.211 191.355,97.878 190.5,93.5C 189.5,93.5 188.5,93.5 187.5,93.5C 187.657,92.1266 187.49,90.7932 187,89.5C 183.989,87.4175 180.989,85.4175 178,83.5C 176.878,81.5795 176.044,79.5795 175.5,77.5 Z"/></g>
<g><path style="opacity:1" fill="#c9d2df" d="M 115.5,81.5 C 116.492,81.3284 117.158,81.6618 117.5,82.5C 116.435,98.1562 115.435,113.823 114.5,129.5C 112.833,129.5 111.167,129.5 109.5,129.5C 110.883,115.523 112.216,101.523 113.5,87.5C 114.167,85.5 114.833,83.5 115.5,81.5 Z"/></g>
<g><path style="opacity:1" fill="#3d4e75" d="M 42.5,102.5 C 45.9914,104.651 48.3248,107.651 49.5,111.5C 43.8895,110.379 38.2228,109.379 32.5,108.5C 29.322,105.742 25.6553,103.742 21.5,102.5C 20.1667,100.833 18.8333,99.1667 17.5,97.5C 17.62,96.4138 18.2867,95.7472 19.5,95.5C 20.5,96.8333 21.5,98.1667 22.5,99.5C 24.3337,98.2455 26.3337,97.5789 28.5,97.5C 29.5089,101.682 32.1755,104.515 36.5,106C 39.8716,107.122 41.8716,105.955 42.5,102.5 Z"/></g>
<g><path style="opacity:1" fill="#91deb4" d="M 21.5,102.5 C 25.6553,103.742 29.322,105.742 32.5,108.5C 32.5,108.833 32.5,109.167 32.5,109.5C 29.917,112.997 27.5836,116.664 25.5,120.5C 25.8664,118.095 26.5331,115.762 27.5,113.5C 26.0083,111.028 25.3416,108.361 25.5,105.5C 23.1417,105.253 21.1417,105.919 19.5,107.5C 20.1667,105.833 20.8333,104.167 21.5,102.5 Z"/></g>
<g><path style="opacity:1" fill="#91e5b1" d="M 25.5,120.5 C 24.7362,123.018 23.7362,125.351 22.5,127.5C 21.5028,127.47 20.8361,127.97 20.5,129C 19.3057,131.888 18.3057,134.722 17.5,137.5C 17.3584,133.85 18.0251,130.35 19.5,127C 18.6604,125.829 17.8271,124.662 17,123.5C 14.393,126.275 13.0597,129.609 13,133.5C 7.03991,141.02 4.87324,149.686 6.5,159.5C 6.01926,167.943 7.51926,175.943 11,183.5C 11.3333,182.167 11.6667,180.833 12,179.5C 13.786,184.741 13.9527,190.074 12.5,195.5C 12.6017,198.37 13.7683,200.703 16,202.5C 16.4966,204.81 16.6633,207.143 16.5,209.5C 12.6199,203.384 9.7866,196.718 8,189.5C 6.25188,180.734 4.75188,172.067 3.5,163.5C 4.83333,162.167 4.83333,160.833 3.5,159.5C 4.3524,150.685 6.01907,142.018 8.5,133.5C 11.4486,126.323 14.7819,119.323 18.5,112.5C 19.4519,110.955 19.7852,109.288 19.5,107.5C 21.1417,105.919 23.1417,105.253 25.5,105.5C 25.3416,108.361 26.0083,111.028 27.5,113.5C 26.5331,115.762 25.8664,118.095 25.5,120.5 Z"/></g>
<g><path style="opacity:1" fill="#a8e4be" d="M 19.5,107.5 C 19.7852,109.288 19.4519,110.955 18.5,112.5C 14.7819,119.323 11.4486,126.323 8.5,133.5C 10.5544,124.068 14.2211,115.402 19.5,107.5 Z"/></g>
<g><path style="opacity:1" fill="#19453a" d="M 32.5,109.5 C 30.3041,115.91 27.4708,122.244 24,128.5C 22.6819,133.781 20.8486,138.781 18.5,143.5C 19.2199,138.008 20.5532,132.675 22.5,127.5C 23.7362,125.351 24.7362,123.018 25.5,120.5C 27.5836,116.664 29.917,112.997 32.5,109.5 Z"/></g>
<g><path style="opacity:1" fill="#cdd6e3" d="M 52.5,109.5 C 64.7289,118.453 76.3955,128.12 87.5,138.5C 87.0269,139.906 86.0269,140.573 84.5,140.5C 72.5169,131.181 60.8503,121.514 49.5,111.5C 50.5,110.833 51.5,110.167 52.5,109.5 Z"/></g>
<g><path style="opacity:1" fill="#98dad6" d="M 109.5,129.5 C 111.167,129.5 112.833,129.5 114.5,129.5C 139.494,133.494 154.828,147.827 160.5,172.5C 160.01,175.655 159.344,178.655 158.5,181.5C 158.384,178.14 158.051,174.807 157.5,171.5C 152.753,154.587 142.42,142.42 126.5,135C 110.87,129.938 96.8699,133.605 84.5,146C 82.5521,151.377 81.5521,157.211 81.5,163.5C 81.5,166.5 81.5,169.5 81.5,172.5C 81.631,173.239 81.4643,173.906 81,174.5C 80.935,172.117 80.1017,171.45 78.5,172.5C 77.5569,177.37 77.8902,182.204 79.5,187C 79.4301,187.765 79.0967,188.265 78.5,188.5C 77.1818,184.229 76.0151,179.895 75,175.5C 73.9615,162.651 77.1281,150.984 84.5,140.5C 86.0269,140.573 87.0269,139.906 87.5,138.5C 93.67,132.774 101.003,129.774 109.5,129.5 Z"/></g>
<g><path style="opacity:1" fill="#6eb7b0" d="M 157.5,171.5 C 156.71,172.609 156.21,173.942 156,175.5C 155.429,167.813 151.929,162.146 145.5,158.5C 143.15,153.824 140.817,149.157 138.5,144.5C 135.097,147.199 131.93,146.866 129,143.5C 127.333,144.833 125.667,146.167 124,147.5C 123.692,146.692 123.192,146.025 122.5,145.5C 121.494,145.938 121.494,146.604 122.5,147.5C 118.838,148.22 115.171,147.887 111.5,146.5C 112.651,145.269 113.817,145.269 115,146.5C 115.333,145.833 115.667,145.167 116,144.5C 117,144.833 118,145.167 119,145.5C 119.507,144.004 119.007,142.837 117.5,142C 118.308,141.692 118.975,141.192 119.5,140.5C 117.267,139.258 115.101,137.924 113,136.5C 112.617,137.056 112.117,137.389 111.5,137.5C 107.496,138.671 103.496,139.504 99.5,140C 102.789,136.833 106.789,135.166 111.5,135C 109.167,134.333 106.833,134.333 104.5,135C 100.411,136.747 96.4112,138.58 92.5,140.5C 92.5,141.5 92.5,142.5 92.5,143.5C 86.5763,148.949 82.9096,155.616 81.5,163.5C 81.5521,157.211 82.5521,151.377 84.5,146C 96.8699,133.605 110.87,129.938 126.5,135C 142.42,142.42 152.753,154.587 157.5,171.5 Z"/></g>
<g><path style="opacity:1" fill="#63b29f" d="M 145.5,158.5 C 144.905,161.113 144.071,161.113 143,158.5C 141.736,160.607 139.903,161.607 137.5,161.5C 136.833,164.167 136.167,166.833 135.5,169.5C 134.991,157.019 128.657,152.686 116.5,156.5C 113.921,156.917 111.754,156.25 110,154.5C 109.333,155.167 108.667,155.833 108,156.5C 106.335,153.396 105.502,150.396 105.5,147.5C 104.749,148.376 104.249,149.376 104,150.5C 102.602,149.949 101.268,149.616 100,149.5C 99,152.167 98,152.167 97,149.5C 96.3311,152.028 95.4978,152.028 94.5,149.5C 96.5543,147.806 98.8877,146.639 101.5,146C 100.692,145.692 100.025,145.192 99.5,144.5C 101.149,143.352 102.649,142.019 104,140.5C 105.044,141.623 105.71,142.956 106,144.5C 106.739,142.779 107.573,141.113 108.5,139.5C 109.192,140.025 109.692,140.692 110,141.5C 110.41,140.099 110.91,138.766 111.5,137.5C 112.117,137.389 112.617,137.056 113,136.5C 115.101,137.924 117.267,139.258 119.5,140.5C 118.975,141.192 118.308,141.692 117.5,142C 119.007,142.837 119.507,144.004 119,145.5C 118,145.167 117,144.833 116,144.5C 115.667,145.167 115.333,145.833 115,146.5C 113.817,145.269 112.651,145.269 111.5,146.5C 115.171,147.887 118.838,148.22 122.5,147.5C 121.494,146.604 121.494,145.938 122.5,145.5C 123.192,146.025 123.692,146.692 124,147.5C 125.667,146.167 127.333,144.833 129,143.5C 131.93,146.866 135.097,147.199 138.5,144.5C 140.817,149.157 143.15,153.824 145.5,158.5 Z"/></g>
<g><path style="opacity:1" fill="#1a3d3c" d="M 187.5,108.5 C 195.476,118.797 200.476,130.463 202.5,143.5C 202.5,154.833 202.5,166.167 202.5,177.5C 202.282,183.04 201.115,188.373 199,193.5C 195.588,201.994 191.421,209.994 186.5,217.5C 184.5,219.5 182.5,221.5 180.5,223.5C 180.579,222.07 180.246,220.736 179.5,219.5C 184.075,218.55 186.742,215.717 187.5,211C 187.415,209.893 187.081,208.893 186.5,208C 187.536,206.383 188.703,206.216 190,207.5C 192.37,204.392 194.37,201.059 196,197.5C 195.269,191.716 194.436,185.883 193.5,180C 194.092,174.25 194.092,168.417 193.5,162.5C 193.111,156.253 194.111,150.253 196.5,144.5C 196.41,158.144 196.91,171.811 198,185.5C 198.561,183.275 199.561,181.275 201,179.5C 201.667,167.167 201.667,154.833 201,142.5C 199.388,142.048 198.388,140.715 198,138.5C 197.824,135.118 197.324,131.785 196.5,128.5C 195.833,129.5 195.167,130.5 194.5,131.5C 193.246,129.741 193.579,128.241 195.5,127C 194.714,124.04 193.548,121.206 192,118.5C 191.667,118.833 191.333,119.167 191,119.5C 187.966,116.486 186.799,112.819 187.5,108.5 Z"/></g>
<g><path style="opacity:1" fill="#91eab4" d="M 152.5,64.5 C 160.907,67.5365 168.574,71.8698 175.5,77.5C 176.044,79.5795 176.878,81.5795 178,83.5C 180.989,85.4175 183.989,87.4175 187,89.5C 187.49,90.7932 187.657,92.1266 187.5,93.5C 188.5,93.5 189.5,93.5 190.5,93.5C 191.355,97.878 193.688,101.211 197.5,103.5C 198.668,106.669 200.501,109.336 203,111.5C 203.667,113.167 203.667,114.833 203,116.5C 201,117.5 201,118.5 203,119.5C 203.777,117.299 204.944,117.299 206.5,119.5C 207.047,122.452 208.214,125.119 210,127.5C 210.175,131.211 210.675,134.878 211.5,138.5C 212.183,138.137 212.85,137.804 213.5,137.5C 214.999,150.852 214.832,164.185 213,177.5C 211.879,182.161 210.379,186.661 208.5,191C 209.591,193.064 209.758,195.231 209,197.5C 208.107,198.711 207.274,198.711 206.5,197.5C 205.981,194.2 204.648,191.367 202.5,189C 202.529,185.177 204.195,182.511 207.5,181C 206.152,179.426 205.486,177.593 205.5,175.5C 206.664,169.524 207.664,163.524 208.5,157.5C 206.035,150.384 204.535,143.05 204,135.5C 200.963,129.745 198.296,123.745 196,117.5C 194.009,114.506 192.009,111.506 190,108.5C 189.329,107.748 188.496,107.414 187.5,107.5C 182.537,100.869 176.87,94.8695 170.5,89.5C 165.74,85.0854 160.406,81.4187 154.5,78.5C 153.167,77.8333 151.833,77.1667 150.5,76.5C 149.498,74.9891 148.831,73.3224 148.5,71.5C 145.68,71.7525 143.014,71.2525 140.5,70C 142.129,68.9435 143.462,67.4435 144.5,65.5C 145.086,65.7093 145.586,66.0426 146,66.5C 147.754,64.75 149.921,64.0833 152.5,64.5 Z"/></g>
<g><path style="opacity:1" fill="#5ea997" d="M 111.5,137.5 C 110.91,138.766 110.41,140.099 110,141.5C 109.692,140.692 109.192,140.025 108.5,139.5C 107.573,141.113 106.739,142.779 106,144.5C 105.71,142.956 105.044,141.623 104,140.5C 102.649,142.019 101.149,143.352 99.5,144.5C 100.025,145.192 100.692,145.692 101.5,146C 98.8877,146.639 96.5543,147.806 94.5,149.5C 95.4978,152.028 96.3311,152.028 97,149.5C 98,152.167 99,152.167 100,149.5C 101.268,149.616 102.602,149.949 104,150.5C 104.249,149.376 104.749,148.376 105.5,147.5C 105.502,150.396 106.335,153.396 108,156.5C 108.667,155.833 109.333,155.167 110,154.5C 111.754,156.25 113.921,156.917 116.5,156.5C 113.69,157.819 110.69,158.819 107.5,159.5C 104.05,159.573 102.717,161.406 103.5,165C 102.919,168.571 104.252,171.071 107.5,172.5C 107.5,173.833 107.5,175.167 107.5,176.5C 106.732,175.737 106.232,174.737 106,173.5C 105.329,172.748 104.496,172.414 103.5,172.5C 102.636,172.298 101.636,171.964 100.5,171.5C 102.279,169.807 102.779,167.807 102,165.5C 101.333,164.167 100.667,164.167 100,165.5C 97.6876,170.154 96.8543,175.154 97.5,180.5C 95.6916,180.509 94.0249,180.009 92.5,179C 92.9574,178.586 93.2907,178.086 93.5,177.5C 92.8333,177.167 92.1667,176.833 91.5,176.5C 93.8463,172.365 93.513,168.698 90.5,165.5C 91.9023,164.158 91.5689,163.324 89.5,163C 90.3802,161.644 90.7135,160.144 90.5,158.5C 87.0292,158.101 86.6958,156.601 89.5,154C 89.0426,153.586 88.7093,153.086 88.5,152.5C 90.5819,151.634 91.9152,150.134 92.5,148C 93.2259,146.265 93.2259,144.765 92.5,143.5C 92.5,142.5 92.5,141.5 92.5,140.5C 96.4112,138.58 100.411,136.747 104.5,135C 106.833,134.333 109.167,134.333 111.5,135C 106.789,135.166 102.789,136.833 99.5,140C 103.496,139.504 107.496,138.671 111.5,137.5 Z"/></g>
<g><path style="opacity:1" fill="#1a4a3c" d="M 202.5,143.5 C 203.993,149.092 204.659,154.926 204.5,161C 204.689,166.752 204.022,172.252 202.5,177.5C 202.5,166.167 202.5,154.833 202.5,143.5 Z"/></g>
<g><path style="opacity:1" fill="#132d67" d="M -0.5,159.5 C 0.833333,159.5 2.16667,159.5 3.5,159.5C 4.83333,160.833 4.83333,162.167 3.5,163.5C 2.16667,163.5 0.833333,163.5 -0.5,163.5C -0.5,162.167 -0.5,160.833 -0.5,159.5 Z"/></g>
<g><path style="opacity:1" fill="#94dcb5" d="M 22.5,127.5 C 20.5532,132.675 19.2199,138.008 18.5,143.5C 17.8505,145.435 17.5172,147.435 17.5,149.5C 16.5084,156.648 16.175,163.981 16.5,171.5C 15.8345,167.849 15.5012,164.015 15.5,160C 15.4881,152.426 16.1548,144.926 17.5,137.5C 18.3057,134.722 19.3057,131.888 20.5,129C 20.8361,127.97 21.5028,127.47 22.5,127.5 Z"/></g>
<g><path style="opacity:1" fill="#4dea90" d="M 135.5,169.5 C 135.204,171.403 134.537,173.07 133.5,174.5C 131.95,173.559 130.284,172.893 128.5,172.5C 129.657,169.693 129.657,167.026 128.5,164.5C 127.848,163.275 126.681,162.608 125,162.5C 123.615,162.514 122.449,162.848 121.5,163.5C 118.5,164.167 115.5,164.833 112.5,165.5C 112.229,167.38 112.896,168.713 114.5,169.5C 115.479,173.474 116.479,177.474 117.5,181.5C 117.17,184.324 116.336,186.991 115,189.5C 112.45,183.743 109.95,178.077 107.5,172.5C 106.531,169.754 105.864,166.921 105.5,164C 105.759,162.213 106.425,160.713 107.5,159.5C 110.69,158.819 113.69,157.819 116.5,156.5C 128.657,152.686 134.991,157.019 135.5,169.5 Z"/></g>
<g><path style="opacity:1" fill="#32a06a" d="M 121.5,163.5 C 122.449,162.848 123.615,162.514 125,162.5C 126.681,162.608 127.848,163.275 128.5,164.5C 126.283,163.631 123.95,163.298 121.5,163.5 Z"/></g>
<g><path style="opacity:1" fill="#235c45" d="M 17.5,149.5 C 17.3496,158.857 17.683,168.191 18.5,177.5C 18.1667,177.5 17.8333,177.5 17.5,177.5C 17.6747,175.379 17.3414,173.379 16.5,171.5C 16.175,163.981 16.5084,156.648 17.5,149.5 Z"/></g>
<g><path style="opacity:1" fill="#539686" d="M 121.5,163.5 C 123.95,163.298 126.283,163.631 128.5,164.5C 129.405,169.361 127.405,172.027 122.5,172.5C 121.652,174.409 121.318,176.409 121.5,178.5C 121.5,179.167 121.167,179.5 120.5,179.5C 119.883,179.611 119.383,179.944 119,180.5C 118.022,176.443 116.522,172.777 114.5,169.5C 112.896,168.713 112.229,167.38 112.5,165.5C 115.5,164.833 118.5,164.167 121.5,163.5 Z"/></g>
<g><path style="opacity:1" fill="#5da398" d="M 145.5,158.5 C 151.929,162.146 155.429,167.813 156,175.5C 156.21,173.942 156.71,172.609 157.5,171.5C 158.051,174.807 158.384,178.14 158.5,181.5C 158.751,186.507 159.084,191.507 159.5,196.5C 159.075,201.35 157.075,205.35 153.5,208.5C 153.336,205.813 153.503,203.146 154,200.5C 155.902,198.13 156.569,195.464 156,192.5C 155.59,193.901 155.09,195.234 154.5,196.5C 153.861,195.903 153.528,195.07 153.5,194C 154.139,190.236 155.139,186.569 156.5,183C 156.385,180.268 155.552,177.768 154,175.5C 153.667,176.5 153.333,177.5 153,178.5C 152.333,179.833 151.667,179.833 151,178.5C 150.667,179.167 150.333,179.833 150,180.5C 147.991,179.167 146.324,177.5 145,175.5C 143.919,177.767 142.419,177.934 140.5,176C 139.826,171.101 138.826,166.268 137.5,161.5C 139.903,161.607 141.736,160.607 143,158.5C 144.071,161.113 144.905,161.113 145.5,158.5 Z"/></g>
<g><path style="opacity:1" fill="#44ae73" d="M 107.5,159.5 C 106.425,160.713 105.759,162.213 105.5,164C 105.864,166.921 106.531,169.754 107.5,172.5C 104.252,171.071 102.919,168.571 103.5,165C 102.717,161.406 104.05,159.573 107.5,159.5 Z"/></g>
<g><path style="opacity:1" fill="#5ca397" d="M 92.5,143.5 C 93.2259,144.765 93.2259,146.265 92.5,148C 91.9152,150.134 90.5819,151.634 88.5,152.5C 88.7093,153.086 89.0426,153.586 89.5,154C 86.6958,156.601 87.0292,158.101 90.5,158.5C 90.7135,160.144 90.3802,161.644 89.5,163C 91.5689,163.324 91.9023,164.158 90.5,165.5C 93.513,168.698 93.8463,172.365 91.5,176.5C 92.1667,176.833 92.8333,177.167 93.5,177.5C 93.2907,178.086 92.9574,178.586 92.5,179C 94.0249,180.009 95.6916,180.509 97.5,180.5C 96.8543,175.154 97.6876,170.154 100,165.5C 100.667,164.167 101.333,164.167 102,165.5C 102.779,167.807 102.279,169.807 100.5,171.5C 101.636,171.964 102.636,172.298 103.5,172.5C 103.784,175.777 103.451,178.943 102.5,182C 104.285,183.593 104.452,185.093 103,186.5C 101.984,185.366 101.317,185.699 101,187.5C 99.0569,183.514 96.3902,182.847 93,185.5C 94.0309,190.378 93.0309,190.711 90,186.5C 88.0728,183.052 86.7394,179.385 86,175.5C 85.9557,182.707 87.9557,189.374 92,195.5C 93.451,197.464 95.2843,198.797 97.5,199.5C 98.5576,202.334 99.7242,205.001 101,207.5C 96.659,204.325 92.8257,200.658 89.5,196.5C 89.24,197.905 88.9066,199.238 88.5,200.5C 86.2518,198.184 84.9184,195.35 84.5,192C 85.1095,189.942 86.1095,189.109 87.5,189.5C 85.0664,183.859 83.0664,178.193 81.5,172.5C 81.5,169.5 81.5,166.5 81.5,163.5C 82.9096,155.616 86.5763,148.949 92.5,143.5 Z"/></g>
<g><path style="opacity:1" fill="#b0e7c6" d="M 215.5,148.5 C 216.657,156.99 216.824,165.657 216,174.5C 215.225,181.912 213.392,188.912 210.5,195.5C 214.713,180.129 216.379,164.463 215.5,148.5 Z"/></g>
<g><path style="opacity:1" fill="#45a275" d="M 128.5,164.5 C 129.657,167.026 129.657,169.693 128.5,172.5C 123.839,171.832 121.839,173.832 122.5,178.5C 122.167,178.5 121.833,178.5 121.5,178.5C 121.318,176.409 121.652,174.409 122.5,172.5C 127.405,172.027 129.405,169.361 128.5,164.5 Z"/></g>
<g><path style="opacity:1" fill="#8de7ae" d="M 17.5,137.5 C 16.1548,144.926 15.4881,152.426 15.5,160C 15.5012,164.015 15.8345,167.849 16.5,171.5C 17.3414,173.379 17.6747,175.379 17.5,177.5C 17.0446,185.035 19.0446,191.702 23.5,197.5C 23.5,197.833 23.5,198.167 23.5,198.5C 23.386,202.597 24.386,206.264 26.5,209.5C 26.3045,212.89 24.8045,215.557 22,217.5C 21.0089,214.36 19.1756,212.026 16.5,210.5C 16.5,210.167 16.5,209.833 16.5,209.5C 16.6633,207.143 16.4966,204.81 16,202.5C 13.7683,200.703 12.6017,198.37 12.5,195.5C 13.9527,190.074 13.786,184.741 12,179.5C 11.6667,180.833 11.3333,182.167 11,183.5C 7.51926,175.943 6.01926,167.943 6.5,159.5C 4.87324,149.686 7.03991,141.02 13,133.5C 13.0597,129.609 14.393,126.275 17,123.5C 17.8271,124.662 18.6604,125.829 19.5,127C 18.0251,130.35 17.3584,133.85 17.5,137.5 Z"/></g>
<g><path style="opacity:1" fill="#4ad185" d="M 128.5,172.5 C 130.284,172.893 131.95,173.559 133.5,174.5C 133.414,175.496 133.748,176.329 134.5,177C 137.167,178.333 139.833,179.667 142.5,181C 143.252,181.671 143.586,182.504 143.5,183.5C 143.167,183.5 142.833,183.5 142.5,183.5C 141.391,183.557 140.391,183.89 139.5,184.5C 139.762,183.022 139.429,181.689 138.5,180.5C 134.716,179.288 131.716,177.121 129.5,174C 127.866,173.506 126.199,173.34 124.5,173.5C 124.494,177.321 126.161,179.987 129.5,181.5C 128.209,181.263 127.209,181.596 126.5,182.5C 126.011,183.995 125.345,185.329 124.5,186.5C 124.893,183.487 124.226,180.82 122.5,178.5C 121.839,173.832 123.839,171.832 128.5,172.5 Z"/></g>
<g><path style="opacity:1" fill="#47ec8c" d="M 139.5,184.5 C 135.993,184.08 132.659,183.08 129.5,181.5C 126.161,179.987 124.494,177.321 124.5,173.5C 126.199,173.34 127.866,173.506 129.5,174C 131.716,177.121 134.716,179.288 138.5,180.5C 139.429,181.689 139.762,183.022 139.5,184.5 Z"/></g>
<g><path style="opacity:1" fill="#38a069" d="M 126.5,182.5 C 127.209,181.596 128.209,181.263 129.5,181.5C 132.659,183.08 135.993,184.08 139.5,184.5C 140.391,183.89 141.391,183.557 142.5,183.5C 141.666,184.748 140.333,185.415 138.5,185.5C 134.491,184.493 130.491,183.493 126.5,182.5 Z"/></g>
<g><path style="opacity:1" fill="#74b6b0" d="M 160.5,172.5 C 163.224,180.605 162.891,188.605 159.5,196.5C 159.084,191.507 158.751,186.507 158.5,181.5C 159.344,178.655 160.01,175.655 160.5,172.5 Z"/></g>
<g><path style="opacity:1" fill="#8ad0ab" d="M 17.5,177.5 C 17.8333,177.5 18.1667,177.5 18.5,177.5C 18.9853,184.468 20.6519,191.135 23.5,197.5C 19.0446,191.702 17.0446,185.035 17.5,177.5 Z"/></g>
<g><path style="opacity:1" fill="#4be88d" d="M 121.5,178.5 C 121.833,178.5 122.167,178.5 122.5,178.5C 124.226,180.82 124.893,183.487 124.5,186.5C 124.25,188.674 123.25,190.341 121.5,191.5C 119.83,191.751 118.33,192.418 117,193.5C 116.833,192.833 116.667,192.167 116.5,191.5C 118.041,187.544 119.374,183.544 120.5,179.5C 121.167,179.5 121.5,179.167 121.5,178.5 Z"/></g>
<g><path style="opacity:1" fill="#3d8367" d="M 126.5,182.5 C 130.491,183.493 134.491,184.493 138.5,185.5C 140.333,185.415 141.666,184.748 142.5,183.5C 142.833,183.5 143.167,183.5 143.5,183.5C 144.404,184.209 144.737,185.209 144.5,186.5C 139.415,187.012 134.581,186.345 130,184.5C 126.393,186.143 124.56,188.976 124.5,193C 122.668,193.748 121.001,194.748 119.5,196C 117.934,196.765 116.601,196.598 115.5,195.5C 118.337,195.316 120.337,193.982 121.5,191.5C 123.25,190.341 124.25,188.674 124.5,186.5C 125.345,185.329 126.011,183.995 126.5,182.5 Z"/></g>
<g><path style="opacity:1" fill="#54988d" d="M 103.5,172.5 C 104.496,172.414 105.329,172.748 106,173.5C 106.232,174.737 106.732,175.737 107.5,176.5C 108.649,181.658 110.316,186.658 112.5,191.5C 112.887,194.254 113.221,196.754 113.5,199C 117.332,199.762 120.998,199.262 124.5,197.5C 125.429,198.689 125.762,200.022 125.5,201.5C 120.44,201.352 115.606,202.352 111,204.5C 105.437,201.608 100.77,197.608 97,192.5C 96.3333,193.167 96.3333,193.833 97,194.5C 98.6851,196.017 100.185,197.684 101.5,199.5C 100.3,200.292 98.9669,200.292 97.5,199.5C 95.2843,198.797 93.451,197.464 92,195.5C 87.9557,189.374 85.9557,182.707 86,175.5C 86.7394,179.385 88.0728,183.052 90,186.5C 93.0309,190.711 94.0309,190.378 93,185.5C 96.3902,182.847 99.0569,183.514 101,187.5C 101.317,185.699 101.984,185.366 103,186.5C 104.452,185.093 104.285,183.593 102.5,182C 103.451,178.943 103.784,175.777 103.5,172.5 Z"/></g>
<g><path style="opacity:1" fill="#3b9768" d="M 114.5,169.5 C 116.522,172.777 118.022,176.443 119,180.5C 119.383,179.944 119.883,179.611 120.5,179.5C 119.374,183.544 118.041,187.544 116.5,191.5C 116.667,192.167 116.833,192.833 117,193.5C 118.33,192.418 119.83,191.751 121.5,191.5C 120.337,193.982 118.337,195.316 115.5,195.5C 114.143,194.41 113.143,193.076 112.5,191.5C 110.316,186.658 108.649,181.658 107.5,176.5C 107.5,175.167 107.5,173.833 107.5,172.5C 109.95,178.077 112.45,183.743 115,189.5C 116.336,186.991 117.17,184.324 117.5,181.5C 116.479,177.474 115.479,173.474 114.5,169.5 Z"/></g>
<g><path style="opacity:1" fill="#6eb5ad" d="M 81.5,172.5 C 83.0664,178.193 85.0664,183.859 87.5,189.5C 86.1095,189.109 85.1095,189.942 84.5,192C 84.9184,195.35 86.2518,198.184 88.5,200.5C 88.933,203.195 90.2663,205.362 92.5,207C 92.2716,207.399 91.9382,207.565 91.5,207.5C 85.4503,202.42 81.117,196.086 78.5,188.5C 79.0967,188.265 79.4301,187.765 79.5,187C 77.8902,182.204 77.5569,177.37 78.5,172.5C 80.1017,171.45 80.935,172.117 81,174.5C 81.4643,173.906 81.631,173.239 81.5,172.5 Z"/></g>
<g><path style="opacity:1" fill="#518f84" d="M 137.5,161.5 C 138.826,166.268 139.826,171.101 140.5,176C 142.419,177.934 143.919,177.767 145,175.5C 146.324,177.5 147.991,179.167 150,180.5C 150.333,179.833 150.667,179.167 151,178.5C 151.667,179.833 152.333,179.833 153,178.5C 153.333,177.5 153.667,176.5 154,175.5C 155.552,177.768 156.385,180.268 156.5,183C 155.139,186.569 154.139,190.236 153.5,194C 153.528,195.07 153.861,195.903 154.5,196.5C 149.656,206.049 148.489,205.716 151,195.5C 147.185,202 141.685,206.5 134.5,209C 127.704,209.703 121.037,209.37 114.5,208C 118.964,209.831 123.631,211.164 128.5,212C 126.577,212.808 124.577,213.308 122.5,213.5C 119.564,212.351 116.564,211.851 113.5,212C 116.445,213.484 119.445,214.818 122.5,216C 120.671,216.273 119.171,217.107 118,218.5C 114.929,217.041 112.096,217.374 109.5,219.5C 102.155,217.484 96.1554,213.484 91.5,207.5C 91.9382,207.565 92.2716,207.399 92.5,207C 90.2663,205.362 88.933,203.195 88.5,200.5C 88.9066,199.238 89.24,197.905 89.5,196.5C 92.8257,200.658 96.659,204.325 101,207.5C 99.7242,205.001 98.5576,202.334 97.5,199.5C 98.9669,200.292 100.3,200.292 101.5,199.5C 100.185,197.684 98.6851,196.017 97,194.5C 96.3333,193.833 96.3333,193.167 97,192.5C 100.77,197.608 105.437,201.608 111,204.5C 115.606,202.352 120.44,201.352 125.5,201.5C 125.762,200.022 125.429,198.689 124.5,197.5C 120.998,199.262 117.332,199.762 113.5,199C 113.221,196.754 112.887,194.254 112.5,191.5C 113.143,193.076 114.143,194.41 115.5,195.5C 116.601,196.598 117.934,196.765 119.5,196C 121.001,194.748 122.668,193.748 124.5,193C 124.56,188.976 126.393,186.143 130,184.5C 134.581,186.345 139.415,187.012 144.5,186.5C 144.737,185.209 144.404,184.209 143.5,183.5C 143.586,182.504 143.252,181.671 142.5,181C 139.833,179.667 137.167,178.333 134.5,177C 133.748,176.329 133.414,175.496 133.5,174.5C 134.537,173.07 135.204,171.403 135.5,169.5C 136.167,166.833 136.833,164.167 137.5,161.5 Z"/></g>
<g><path style="opacity:1" fill="#94e7b7" d="M 187.5,108.5 C 187.5,108.167 187.5,107.833 187.5,107.5C 188.496,107.414 189.329,107.748 190,108.5C 192.009,111.506 194.009,114.506 196,117.5C 198.296,123.745 200.963,129.745 204,135.5C 204.535,143.05 206.035,150.384 208.5,157.5C 207.664,163.524 206.664,169.524 205.5,175.5C 205.486,177.593 206.152,179.426 207.5,181C 204.195,182.511 202.529,185.177 202.5,189C 204.648,191.367 205.981,194.2 206.5,197.5C 207.274,198.711 208.107,198.711 209,197.5C 209.758,195.231 209.591,193.064 208.5,191C 210.379,186.661 211.879,182.161 213,177.5C 214.832,164.185 214.999,150.852 213.5,137.5C 214.903,140.909 215.57,144.575 215.5,148.5C 216.379,164.463 214.713,180.129 210.5,195.5C 207.234,206.704 201.901,216.704 194.5,225.5C 195.219,223.236 195.552,220.903 195.5,218.5C 196.5,218.5 197.5,218.5 198.5,218.5C 198.343,217.127 198.51,215.793 199,214.5C 201.187,212.138 203.02,209.471 204.5,206.5C 204.007,203.515 202.84,200.848 201,198.5C 197.906,201.098 198.072,202.765 201.5,203.5C 201.5,204.833 201.5,206.167 201.5,207.5C 199.5,206.833 197.5,206.167 195.5,205.5C 195.5,206.5 195.5,207.5 195.5,208.5C 196.5,208.5 197.5,208.5 198.5,208.5C 198.785,210.288 198.452,211.955 197.5,213.5C 196.914,213.291 196.414,212.957 196,212.5C 195.462,215.345 194.462,218.012 193,220.5C 191.989,221.337 190.822,221.67 189.5,221.5C 189.66,219.801 189.494,218.134 189,216.5C 188.329,217.252 187.496,217.586 186.5,217.5C 191.421,209.994 195.588,201.994 199,193.5C 201.115,188.373 202.282,183.04 202.5,177.5C 204.022,172.252 204.689,166.752 204.5,161C 204.659,154.926 203.993,149.092 202.5,143.5C 200.476,130.463 195.476,118.797 187.5,108.5 Z"/></g>
<g><path style="opacity:1" fill="#4c8279" d="M 153.5,208.5 C 151.015,213.15 147.348,216.65 142.5,219C 131.428,223.469 120.428,223.636 109.5,219.5C 112.096,217.374 114.929,217.041 118,218.5C 119.171,217.107 120.671,216.273 122.5,216C 119.445,214.818 116.445,213.484 113.5,212C 116.564,211.851 119.564,212.351 122.5,213.5C 124.577,213.308 126.577,212.808 128.5,212C 123.631,211.164 118.964,209.831 114.5,208C 121.037,209.37 127.704,209.703 134.5,209C 141.685,206.5 147.185,202 151,195.5C 148.489,205.716 149.656,206.049 154.5,196.5C 155.09,195.234 155.59,193.901 156,192.5C 156.569,195.464 155.902,198.13 154,200.5C 153.503,203.146 153.336,205.813 153.5,208.5 Z"/></g>
<g><path style="opacity:1" fill="#92deb2" d="M 23.5,198.5 C 26.306,203.437 29.1393,208.437 32,213.5C 33.0491,215.618 34.5491,217.284 36.5,218.5C 40.4599,223.795 44.7932,228.795 49.5,233.5C 47.6883,233.229 46.0217,232.562 44.5,231.5C 40.1288,225.97 35.6288,220.637 31,215.5C 30,215.167 29,214.833 28,214.5C 27.4345,217.678 26.7679,220.678 26,223.5C 27.5626,226.044 29.0626,226.044 30.5,223.5C 30.8333,223.833 31.1667,224.167 31.5,224.5C 30.5153,226.098 30.3486,227.765 31,229.5C 35.9815,234.316 40.8148,239.316 45.5,244.5C 33.0052,235.665 23.3386,224.332 16.5,210.5C 19.1756,212.026 21.0089,214.36 22,217.5C 24.8045,215.557 26.3045,212.89 26.5,209.5C 24.386,206.264 23.386,202.597 23.5,198.5 Z"/></g>
<g><path style="opacity:1" fill="#18463b" d="M 18.5,177.5 C 19.3246,179.308 20.3246,181.141 21.5,183C 21.9982,188.82 23.4982,194.32 26,199.5C 29.779,205.743 33.279,212.077 36.5,218.5C 34.5491,217.284 33.0491,215.618 32,213.5C 29.1393,208.437 26.306,203.437 23.5,198.5C 23.5,198.167 23.5,197.833 23.5,197.5C 20.6519,191.135 18.9853,184.468 18.5,177.5 Z"/></g>
<g><path style="opacity:1" fill="#90ebb3" d="M 194.5,225.5 C 192.529,227.152 190.196,228.319 187.5,229C 184.928,234.734 180.928,238.901 175.5,241.5C 175.5,240.167 175.5,238.833 175.5,237.5C 174.5,237.5 173.5,237.5 172.5,237.5C 172.286,235.856 172.62,234.356 173.5,233C 179.29,232.376 182.623,229.209 183.5,223.5C 185.978,222.278 186.978,220.278 186.5,217.5C 187.496,217.586 188.329,217.252 189,216.5C 189.494,218.134 189.66,219.801 189.5,221.5C 190.822,221.67 191.989,221.337 193,220.5C 194.462,218.012 195.462,215.345 196,212.5C 196.414,212.957 196.914,213.291 197.5,213.5C 198.452,211.955 198.785,210.288 198.5,208.5C 197.5,208.5 196.5,208.5 195.5,208.5C 195.5,207.5 195.5,206.5 195.5,205.5C 197.5,206.167 199.5,206.833 201.5,207.5C 201.5,206.167 201.5,204.833 201.5,203.5C 198.072,202.765 197.906,201.098 201,198.5C 202.84,200.848 204.007,203.515 204.5,206.5C 203.02,209.471 201.187,212.138 199,214.5C 198.51,215.793 198.343,217.127 198.5,218.5C 197.5,218.5 196.5,218.5 195.5,218.5C 195.552,220.903 195.219,223.236 194.5,225.5 Z"/></g>
<g><path style="opacity:1" fill="#18443a" d="M 173.5,230.5 C 166.209,238.153 157.543,243.82 147.5,247.5C 149.717,245.503 152.05,243.503 154.5,241.5C 156.465,240.708 158.465,240.041 160.5,239.5C 161.594,235.456 164.261,233.789 168.5,234.5C 168.34,232.801 168.506,231.134 169,229.5C 170.356,230.38 171.856,230.714 173.5,230.5 Z"/></g>
<g><path style="opacity:1" fill="#95e5b7" d="M 186.5,217.5 C 186.978,220.278 185.978,222.278 183.5,223.5C 182.623,229.209 179.29,232.376 173.5,233C 172.62,234.356 172.286,235.856 172.5,237.5C 173.5,237.5 174.5,237.5 175.5,237.5C 175.5,238.833 175.5,240.167 175.5,241.5C 180.928,238.901 184.928,234.734 187.5,229C 190.196,228.319 192.529,227.152 194.5,225.5C 182.926,241.413 167.926,252.746 149.5,259.5C 133.621,266.317 116.954,268.817 99.5,267C 95.2335,266.811 91.2335,265.977 87.5,264.5C 91.8588,264.534 96.1921,264.201 100.5,263.5C 103.322,263.552 105.989,264.219 108.5,265.5C 114.767,265.347 121.101,265.18 127.5,265C 132.055,263.899 135.721,261.566 138.5,258C 131.023,257.153 123.523,256.653 116,256.5C 106.441,257.114 97.1074,257.781 88,258.5C 87.1247,256.487 85.7913,256.487 84,258.5C 83.2496,257.874 82.4162,257.374 81.5,257C 83.8856,256.716 84.5523,255.716 83.5,254C 77.9061,254.876 74.2394,252.709 72.5,247.5C 72.8333,247.5 73.1667,247.5 73.5,247.5C 79.7463,248.827 86.0797,250.16 92.5,251.5C 97.0993,249.819 101.099,250.652 104.5,254C 107,254.167 109.5,254.333 112,254.5C 121.875,253.401 131.709,251.734 141.5,249.5C 143.703,249.396 145.703,248.73 147.5,247.5C 157.543,243.82 166.209,238.153 173.5,230.5C 176.167,228.5 178.5,226.167 180.5,223.5C 182.5,221.5 184.5,219.5 186.5,217.5 Z"/></g>
<g><path style="opacity:1" fill="#1d4a3f" d="M 73.5,247.5 C 79.7463,248.827 86.0797,250.16 92.5,251.5C 97.0993,249.819 101.099,250.652 104.5,254C 107,254.167 109.5,254.333 112,254.5C 121.875,253.401 131.709,251.734 141.5,249.5C 131.739,253.742 121.405,255.742 110.5,255.5C 97.4685,255.488 85.1352,252.822 73.5,247.5 Z"/></g>
<g><path style="opacity:1" fill="#90ebb3" d="M 149.5,259.5 C 145.441,259.566 141.441,259.733 137.5,260C 140.035,257.963 142.702,256.13 145.5,254.5C 140.291,252.841 140.458,251.508 146,250.5C 147.834,251.836 149.834,252.836 152,253.5C 155.124,251.716 154.624,250.716 150.5,250.5C 150.5,249.5 150.5,248.5 150.5,247.5C 153.889,247.632 157.223,247.799 160.5,248C 160.693,246.355 160.86,244.521 161,242.5C 162.049,243.517 163.216,243.684 164.5,243C 166.849,238.313 169.849,237.646 173.5,241C 172.062,241.219 170.729,241.719 169.5,242.5C 170.645,243.891 170.645,245.224 169.5,246.5C 165.232,250.635 160.565,252.968 155.5,253.5C 155.719,254.675 155.386,255.675 154.5,256.5C 152.604,257.275 150.937,258.275 149.5,259.5 Z"/></g>
<g><path style="opacity:1" fill="#8fe7b0" d="M 49.5,233.5 C 56.6668,238.92 64.3335,243.587 72.5,247.5C 74.2394,252.709 77.9061,254.876 83.5,254C 84.5523,255.716 83.8856,256.716 81.5,257C 82.4162,257.374 83.2496,257.874 84,258.5C 85.7913,256.487 87.1247,256.487 88,258.5C 97.1074,257.781 106.441,257.114 116,256.5C 123.523,256.653 131.023,257.153 138.5,258C 135.721,261.566 132.055,263.899 127.5,265C 121.101,265.18 114.767,265.347 108.5,265.5C 105.989,264.219 103.322,263.552 100.5,263.5C 96.1921,264.201 91.8588,264.534 87.5,264.5C 71.6131,261.554 57.6131,254.888 45.5,244.5C 40.8148,239.316 35.9815,234.316 31,229.5C 30.3486,227.765 30.5153,226.098 31.5,224.5C 31.1667,224.167 30.8333,223.833 30.5,223.5C 29.0626,226.044 27.5626,226.044 26,223.5C 26.7679,220.678 27.4345,217.678 28,214.5C 29,214.833 30,215.167 31,215.5C 35.6288,220.637 40.1288,225.97 44.5,231.5C 46.0217,232.562 47.6883,233.229 49.5,233.5 Z"/></g>
</svg>
