<?xml version="1.0" encoding="UTF-8"?>
<!DOCTYPE svg PUBLIC "-//W3C//DTD SVG 1.1//EN" "http://www.w3.org/Graphics/SVG/1.1/DTD/svg11.dtd">
<svg xmlns="http://www.w3.org/2000/svg" version="1.1" width="218px" height="253px" style="shape-rendering:geometricPrecision; text-rendering:geometricPrecision; image-rendering:optimizeQuality; fill-rule:evenodd; clip-rule:evenodd" xmlns:xlink="http://www.w3.org/1999/xlink">
<g><path style="opacity:1" fill="#58ad62" d="M 171.5,11.5 C 169.484,8.85617 166.817,8.02283 163.5,9C 158.333,13.5 153.167,18 148,22.5C 147.536,21.9056 147.369,21.2389 147.5,20.5C 149.167,19.5 150.5,18.1667 151.5,16.5C 155.625,13.5474 159.625,10.3807 163.5,7C 167.526,5.66343 170.526,6.8301 172.5,10.5C 172.376,11.1067 172.043,11.44 171.5,11.5 Z"/></g>
<g><path style="opacity:1" fill="#c9f4cc" d="M 159.5,7.5 C 156.754,10.5709 154.087,13.5709 151.5,16.5C 150.5,18.1667 149.167,19.5 147.5,20.5C 144.5,22.8333 141.833,25.5 139.5,28.5C 137.938,28.7329 136.605,29.3995 135.5,30.5C 133.5,31.5 131.5,32.5 129.5,33.5C 138.744,23.8908 148.744,15.2241 159.5,7.5 Z"/></g>
<g><path style="opacity:1" fill="#297836" d="M 187.5,26.5 C 187.5,27.1667 187.5,27.8333 187.5,28.5C 187.167,28.5 186.833,28.5 186.5,28.5C 185.688,27.0069 184.355,26.3402 182.5,26.5C 180.182,26.9971 177.848,27.3305 175.5,27.5C 179.193,24 183.193,23.6666 187.5,26.5 Z"/></g>
<g><path style="opacity:1" fill="#86d589" d="M 171.5,11.5 C 159.147,20.3408 146.481,28.6742 133.5,36.5C 135.091,33.5691 137.091,30.9024 139.5,28.5C 141.833,25.5 144.5,22.8333 147.5,20.5C 147.369,21.2389 147.536,21.9056 148,22.5C 153.167,18 158.333,13.5 163.5,9C 166.817,8.02283 169.484,8.85617 171.5,11.5 Z"/></g>
<g><path style="opacity:1" fill="#398d46" d="M 175.5,27.5 C 175.423,28.7498 174.756,29.5831 173.5,30C 170.066,30.5576 166.733,31.391 163.5,32.5C 167.111,30.0692 171.111,28.4025 175.5,27.5 Z"/></g>
<g><path style="opacity:1" fill="#a7e4bc" d="M 129.5,33.5 C 131.5,32.5 133.5,31.5 135.5,30.5C 134.415,32.5869 132.749,33.9202 130.5,34.5C 129.5,34.5 128.5,34.5 127.5,34.5C 110.283,31.938 92.9492,31.938 75.5,34.5C 84.6188,31.4002 94.1188,30.0668 104,30.5C 112.708,30.1336 121.208,31.1336 129.5,33.5 Z"/></g>
<g><path style="opacity:1" fill="#489f56" d="M 163.5,32.5 C 160.253,35.7851 156.253,37.4518 151.5,37.5C 155.063,34.9762 159.063,33.3095 163.5,32.5 Z"/></g>
<g><path style="opacity:1" fill="#8ad58c" d="M 191.5,55.5 C 191.167,55.5 190.833,55.5 190.5,55.5C 192.163,45.0119 187.829,41.5119 177.5,45C 175.604,47.7187 175.271,50.5521 176.5,53.5C 172.315,54.7513 171.648,56.918 174.5,60C 173.217,62.7947 173.217,65.6281 174.5,68.5C 175.597,66.4654 177.263,65.1321 179.5,64.5C 176.18,63.2387 175.846,61.572 178.5,59.5C 180.046,60.684 181.713,61.684 183.5,62.5C 182.5,63.3333 181.5,64.1667 180.5,65C 181.449,65.6172 182.282,65.4506 183,64.5C 183.925,65.0465 184.758,65.7132 185.5,66.5C 183.163,67.517 181.496,69.1837 180.5,71.5C 177.325,70.6127 175.658,71.946 175.5,75.5C 178.05,75.5608 179.55,76.8941 180,79.5C 180.374,78.5838 180.874,77.7504 181.5,77C 184,76.1146 186.333,74.9479 188.5,73.5C 189.167,73.8333 189.833,74.1667 190.5,74.5C 191.833,73.5 193.167,72.5 194.5,71.5C 195.293,71.9312 196.127,72.2645 197,72.5C 198.879,70.9872 201.046,70.3205 203.5,70.5C 182.71,79.5447 161.71,88.2114 140.5,96.5C 141.677,94.9685 143.011,93.4685 144.5,92C 152.238,89.4456 159.405,86.6123 166,83.5C 167.067,82.8095 168.234,82.3095 169.5,82C 170.901,79.2035 172.568,76.5369 174.5,74C 171.99,72.2555 169.324,72.0888 166.5,73.5C 172.403,65.3682 171.736,57.8682 164.5,51C 158.139,47.7281 151.806,47.7281 145.5,51C 140.818,54.9386 139.485,59.7719 141.5,65.5C 139.676,63.0042 138.676,60.0042 138.5,56.5C 139.918,52.4744 140.252,48.4744 139.5,44.5C 141.261,43.6873 142.928,42.6873 144.5,41.5C 147.067,43.6132 150.067,44.9465 153.5,45.5C 157.623,43.9802 161.956,43.1469 166.5,43C 165.167,42.6667 163.833,42.3333 162.5,42C 164.644,41.9558 166.477,40.7892 168,38.5C 168.333,39.5 168.667,40.5 169,41.5C 169.701,38.6728 170.701,36.0062 172,33.5C 172,34.8333 172,36.1667 172,37.5C 172.98,35.9411 173.813,34.2744 174.5,32.5C 176.156,34.0224 177.323,33.689 178,31.5C 178.333,32.1667 178.667,32.8333 179,33.5C 180.733,29.3567 182.4,28.6901 184,31.5C 184.772,31.3552 185.439,31.0219 186,30.5C 186.273,32.3289 187.107,33.8289 188.5,35C 187.833,36.3333 186.833,37.3333 185.5,38C 182.486,38.1276 179.486,38.1276 176.5,38C 175.151,39.6354 175.318,41.1354 177,42.5C 178.337,40.9963 180.004,39.9963 182,39.5C 186.771,41.6248 191.105,44.2914 195,47.5C 195.483,48.448 195.649,49.448 195.5,50.5C 194.5,50.5 193.5,50.5 192.5,50.5C 192.784,52.4147 192.451,54.0813 191.5,55.5 Z"/></g>
<g><path style="opacity:1" fill="#8ee6af" d="M 127.5,34.5 C 125.041,37.854 122.041,40.5207 118.5,42.5C 108.194,41.4334 97.8602,41.2667 87.5,42C 84.6074,42.6309 81.7741,43.4642 79,44.5C 77.6974,44.0217 76.5307,43.355 75.5,42.5C 73.1547,39.925 70.1547,38.925 66.5,39.5C 69.4734,37.9475 72.4734,36.2809 75.5,34.5C 92.9492,31.938 110.283,31.938 127.5,34.5 Z"/></g>
<g><path style="opacity:1" fill="#c5aba7" d="M 66.5,39.5 C 70.1547,38.925 73.1547,39.925 75.5,42.5C 75.427,44.0269 76.0937,45.0269 77.5,45.5C 77.5,45.8333 77.5,46.1667 77.5,46.5C 77.3713,48.2161 77.038,49.8828 76.5,51.5C 76.1667,51.5 75.8333,51.5 75.5,51.5C 75.2962,48.4824 74.9629,45.4824 74.5,42.5C 70.8333,42.5 67.1667,42.5 63.5,42.5C 63.5,42.1667 63.5,41.8333 63.5,41.5C 64.7095,41.0679 65.7095,40.4013 66.5,39.5 Z"/></g>
<g><path style="opacity:1" fill="#96dab5" d="M 118.5,42.5 C 118.144,44.1898 117.144,45.1898 115.5,45.5C 115.611,44.8826 115.944,44.3826 116.5,44C 103.396,41.8052 90.3959,42.3052 77.5,45.5C 76.0937,45.0269 75.427,44.0269 75.5,42.5C 76.5307,43.355 77.6974,44.0217 79,44.5C 81.7741,43.4642 84.6074,42.6309 87.5,42C 97.8602,41.2667 108.194,41.4334 118.5,42.5 Z"/></g>
<g><path style="opacity:1" fill="#41954f" d="M 151.5,37.5 C 149.512,39.4915 147.178,40.8248 144.5,41.5C 142.928,42.6873 141.261,43.6873 139.5,44.5C 135.647,46.005 131.647,47.005 127.5,47.5C 135.244,43.6305 143.244,40.2972 151.5,37.5 Z"/></g>
<g><path style="opacity:1" fill="#1d453d" d="M 115.5,45.5 C 113.5,47.1667 111.5,48.8333 109.5,50.5C 109.5,49.1667 109.5,47.8333 109.5,46.5C 110.552,46.6495 111.552,46.4828 112.5,46C 112.167,45.6667 111.833,45.3333 111.5,45C 108.167,44.8333 104.833,44.6667 101.5,44.5C 93.4832,45.0374 85.4832,45.7041 77.5,46.5C 77.5,46.1667 77.5,45.8333 77.5,45.5C 90.3959,42.3052 103.396,41.8052 116.5,44C 115.944,44.3826 115.611,44.8826 115.5,45.5 Z"/></g>
<g><path style="opacity:1" fill="#b3c7b0" d="M 63.5,41.5 C 63.5,41.8333 63.5,42.1667 63.5,42.5C 59.2458,44.7485 55.2458,47.4152 51.5,50.5C 51.5106,48.9826 52.1772,47.8159 53.5,47C 56.7675,44.8646 60.1008,43.0312 63.5,41.5 Z"/></g>
<g><path style="opacity:1" fill="#1d393f" d="M 109.5,50.5 C 106.118,52.8637 102.451,54.8637 98.5,56.5C 97.0852,59.1844 96.7519,61.8511 97.5,64.5C 99.1667,66.8333 101.167,68.8333 103.5,70.5C 104.737,71.9649 105.737,73.6316 106.5,75.5C 105.552,80.2577 106.885,84.091 110.5,87C 112.901,94.5481 116.068,101.715 120,108.5C 120.333,108.167 120.667,107.833 121,107.5C 124.436,108.286 127.936,108.953 131.5,109.5C 133.664,107.316 136.331,105.983 139.5,105.5C 140.193,104.482 140.859,103.482 141.5,102.5C 143.801,101.94 146.134,101.44 148.5,101C 152.947,97.443 157.947,94.943 163.5,93.5C 167.657,94.7563 170.657,93.2563 172.5,89C 175.027,88.4869 177.193,87.3202 179,85.5C 180.138,85.9891 181.305,86.3225 182.5,86.5C 185.323,90.1362 187.656,94.1362 189.5,98.5C 186.433,102.909 183.767,107.576 181.5,112.5C 180.225,115.604 180.225,118.604 181.5,121.5C 181.414,122.496 181.748,123.329 182.5,124C 185.051,124.002 187.051,124.836 188.5,126.5C 187.249,131.262 184.582,135.095 180.5,138C 175.423,141.098 170.09,143.598 164.5,145.5C 163.222,147.722 162.222,150.056 161.5,152.5C 162.178,154.516 162.844,156.516 163.5,158.5C 165.159,160.343 167.325,161.343 170,161.5C 180.742,159.244 189.576,153.91 196.5,145.5C 196.5,146.167 196.5,146.833 196.5,147.5C 195.883,147.611 195.383,147.944 195,148.5C 194.146,154.933 192.979,161.266 191.5,167.5C 189.244,170.46 187.578,173.793 186.5,177.5C 185.5,177.5 184.5,177.5 183.5,177.5C 183.687,172.378 182.02,168.045 178.5,164.5C 178.167,169.008 178.167,174.008 178.5,179.5C 180.167,179.5 181.833,179.5 183.5,179.5C 183.761,183.044 182.095,184.878 178.5,185C 179.114,186.13 179.114,187.463 178.5,189C 177.379,191.29 176.045,193.457 174.5,195.5C 173.05,194.345 172.05,192.845 171.5,191C 170.668,190.312 170.002,190.479 169.5,191.5C 168.515,193.098 168.349,194.765 169,196.5C 169.777,194.299 170.944,194.299 172.5,196.5C 171.754,197.736 171.421,199.07 171.5,200.5C 168.126,204.876 164.126,208.542 159.5,211.5C 157.5,211.5 155.5,211.5 153.5,211.5C 153.631,214.367 152.297,216.033 149.5,216.5C 147.672,215.206 145.672,214.206 143.5,213.5C 143.67,214.822 143.337,215.989 142.5,217C 140.323,218.202 137.989,218.702 135.5,218.5C 136.092,222.074 134.592,224.074 131,224.5C 130.626,223.584 130.126,222.75 129.5,222C 130.964,220.136 131.964,217.969 132.5,215.5C 134.842,212.714 137.842,211.047 141.5,210.5C 143.608,207.736 143.941,204.736 142.5,201.5C 141.692,203.423 141.192,205.423 141,207.5C 139.301,208.406 137.467,208.739 135.5,208.5C 133.092,203.319 134.759,200.652 140.5,200.5C 140.833,197.5 139.5,196.167 136.5,196.5C 138.183,195.147 139.516,193.48 140.5,191.5C 142.283,190.886 143.616,189.72 144.5,188C 145.448,187.517 146.448,187.351 147.5,187.5C 148.491,181.857 150.324,176.524 153,171.5C 153.667,165.833 153.667,160.167 153,154.5C 152.901,152.347 152.067,150.681 150.5,149.5C 147.8,140.405 142.466,133.405 134.5,128.5C 129.474,124.653 123.807,121.82 117.5,120C 113.5,119.667 109.5,119.333 105.5,119C 95.544,111.176 84.2107,107.676 71.5,108.5C 67.8026,109.008 64.1359,109.674 60.5,110.5C 58.1944,110.007 55.861,109.674 53.5,109.5C 52.9599,114.274 50.4599,115.608 46,113.5C 44.395,114.101 43.0616,115.101 42,116.5C 38.8304,123.586 35.497,130.586 32,137.5C 31.6757,146.985 32.6757,156.318 35,165.5C 37.0802,168.612 39.2469,171.612 41.5,174.5C 42.5261,175.853 43.8595,176.853 45.5,177.5C 50.5421,181.874 55.8755,185.874 61.5,189.5C 59.0072,189.329 57.1739,190.329 56,192.5C 53.1991,191.433 50.5324,190.1 48,188.5C 44.375,189.342 42.5416,191.675 42.5,195.5C 41.2638,194.754 39.9305,194.421 38.5,194.5C 38.2965,192.61 38.9632,191.11 40.5,190C 36.298,188.631 33.6313,185.797 32.5,181.5C 31.675,180.614 30.675,180.281 29.5,180.5C 29.5123,184.446 27.5123,186.113 23.5,185.5C 21.4854,182.131 19.4854,178.798 17.5,175.5C 15.9637,170.891 14.6304,166.224 13.5,161.5C 12.882,150.523 12.7153,139.523 13,128.5C 12.3333,133.167 11.6667,137.833 11,142.5C 10.8333,140 10.6667,137.5 10.5,135C 11.9724,124.041 13.9724,113.207 16.5,102.5C 20.0698,101.649 22.0698,99.3155 22.5,95.5C 23.951,99.0529 25.951,102.386 28.5,105.5C 29.0206,102.222 29.1873,98.8891 29,95.5C 29.7412,94.3595 30.5745,94.3595 31.5,95.5C 32.3184,92.8929 32.8184,90.2263 33,87.5C 33.3826,86.944 33.8826,86.6107 34.5,86.5C 33.9084,89.1272 33.5751,91.7938 33.5,94.5C 34.5,97.5 36.5,99.5 39.5,100.5C 41.822,102.664 44.4887,104.331 47.5,105.5C 48.4919,107.026 49.9919,107.693 52,107.5C 53.3847,107.486 54.5514,107.152 55.5,106.5C 57.588,104.664 58.9213,102.331 59.5,99.5C 63.6285,94.2173 65.1285,88.2173 64,81.5C 61.6954,79.0695 58.8621,78.0695 55.5,78.5C 55.2641,75.3915 55.5975,72.3915 56.5,69.5C 60.605,63.2309 66.2716,59.0642 73.5,57C 75.16,55.5123 76.16,53.679 76.5,51.5C 77.038,49.8828 77.3713,48.2161 77.5,46.5C 85.4832,45.7041 93.4832,45.0374 101.5,44.5C 104.833,44.6667 108.167,44.8333 111.5,45C 111.833,45.3333 112.167,45.6667 112.5,46C 111.552,46.4828 110.552,46.6495 109.5,46.5C 109.5,47.8333 109.5,49.1667 109.5,50.5 Z"/></g>
<g><path style="opacity:1" fill="#68c274" d="M 139.5,28.5 C 137.091,30.9024 135.091,33.5691 133.5,36.5C 129.192,40.1888 124.525,43.6888 119.5,47C 118.833,47.6667 118.167,47.6667 117.5,47C 121.729,42.6022 126.062,38.4356 130.5,34.5C 132.749,33.9202 134.415,32.5869 135.5,30.5C 136.605,29.3995 137.938,28.7329 139.5,28.5 Z"/></g>
<g><path style="opacity:1" fill="#9fe1b7" d="M 75.5,34.5 C 72.4734,36.2809 69.4734,37.9475 66.5,39.5C 65.7095,40.4013 64.7095,41.0679 63.5,41.5C 60.1008,43.0312 56.7675,44.8646 53.5,47C 52.1772,47.8159 51.5106,48.9826 51.5,50.5C 50.407,52.3492 49.0737,54.0158 47.5,55.5C 47.5,54.1667 47.5,52.8333 47.5,51.5C 45.6693,52.0522 44.0026,52.0522 42.5,51.5C 39.7984,53.22 37.1318,54.8866 34.5,56.5C 45.9562,45.2686 59.6229,37.9353 75.5,34.5 Z"/></g>
<g><path style="opacity:1" fill="#b0f4bb" d="M 187.5,26.5 C 183.193,23.6666 179.193,24 175.5,27.5C 171.111,28.4025 167.111,30.0692 163.5,32.5C 159.063,33.3095 155.063,34.9762 151.5,37.5C 143.244,40.2972 135.244,43.6305 127.5,47.5C 123.111,48.4025 119.111,50.0692 115.5,52.5C 113.297,52.6036 111.297,53.2702 109.5,54.5C 111.553,51.4638 113.553,48.4638 115.5,45.5C 117.144,45.1898 118.144,44.1898 118.5,42.5C 122.041,40.5207 125.041,37.854 127.5,34.5C 128.5,34.5 129.5,34.5 130.5,34.5C 126.062,38.4356 121.729,42.6022 117.5,47C 118.167,47.6667 118.833,47.6667 119.5,47C 124.525,43.6888 129.192,40.1888 133.5,36.5C 146.481,28.6742 159.147,20.3408 171.5,11.5C 172.043,11.44 172.376,11.1067 172.5,10.5C 170.526,6.8301 167.526,5.66343 163.5,7C 159.625,10.3807 155.625,13.5474 151.5,16.5C 154.087,13.5709 156.754,10.5709 159.5,7.5C 161.886,6.62669 163.886,5.12669 165.5,3C 169.207,2.1865 171.54,3.6865 172.5,7.5C 177.431,9.93656 181.598,13.2699 185,17.5C 186.131,20.4453 186.964,23.4453 187.5,26.5 Z"/></g>
<g><path style="opacity:1" fill="#57b163" d="M 183.5,20.5 C 181.416,18.9233 179.416,17.09 177.5,15C 176.5,14.3333 175.5,14.3333 174.5,15C 162.423,22.3609 150.756,30.1942 139.5,38.5C 137.418,40.0919 135.085,40.9252 132.5,41C 145.539,31.6386 158.873,22.6386 172.5,14C 177.973,12.952 181.639,15.1186 183.5,20.5 Z"/></g>
<g><path style="opacity:1" fill="#8ad68d" d="M 183.5,20.5 C 168.968,26.6814 154.301,32.6814 139.5,38.5C 150.756,30.1942 162.423,22.3609 174.5,15C 175.5,14.3333 176.5,14.3333 177.5,15C 179.416,17.09 181.416,18.9233 183.5,20.5 Z"/></g>
<g><path style="opacity:1" fill="#308440" d="M 127.5,47.5 C 123.889,49.9308 119.889,51.5975 115.5,52.5C 119.111,50.0692 123.111,48.4025 127.5,47.5 Z"/></g>
<g><path style="opacity:1" fill="#b6f4c1" d="M 187.5,26.5 C 190.386,26.6099 192.72,27.7766 194.5,30C 193.978,30.9503 193.311,31.7836 192.5,32.5C 193.651,33.731 194.817,33.731 196,32.5C 197.739,34.7411 199.906,36.4078 202.5,37.5C 203.086,37.2907 203.586,36.9574 204,36.5C 206.696,40.8912 208.529,45.7245 209.5,51C 208.729,53.2711 207.729,55.4378 206.5,57.5C 208.381,60.8862 210.048,64.3862 211.5,68C 210.239,69.9618 208.572,71.4618 206.5,72.5C 203.416,74.5366 200.083,76.2032 196.5,77.5C 196.44,76.9569 196.107,76.6236 195.5,76.5C 193.974,76.9943 192.641,77.661 191.5,78.5C 187.468,79.6105 183.802,81.2771 180.5,83.5C 168.798,88.1782 157.131,93.1782 145.5,98.5C 144.167,98.8333 142.833,99.1667 141.5,99.5C 140.209,99.7373 139.209,99.404 138.5,98.5C 138.833,97.5 139.5,96.8333 140.5,96.5C 161.71,88.2114 182.71,79.5447 203.5,70.5C 205.56,69.7848 207.226,68.4514 208.5,66.5C 208.376,65.8933 208.043,65.56 207.5,65.5C 201.578,52.6486 194.911,40.3152 187.5,28.5C 187.5,27.8333 187.5,27.1667 187.5,26.5 Z"/></g>
<g><path style="opacity:1" fill="#37894a" d="M 200.5,41.5 C 198.915,40.9976 198.415,39.9976 199,38.5C 200.039,39.2438 200.539,40.2438 200.5,41.5 Z"/></g>
<g><path style="opacity:1" fill="#66b674" d="M 200.5,41.5 C 203.5,43.6676 206,46.3343 208,49.5C 208.315,50.9078 207.982,52.2411 207,53.5C 204.36,49.7367 202.193,45.7367 200.5,41.5 Z"/></g>
<g><path style="opacity:1" fill="#baf5c5" d="M 190.5,55.5 C 186.76,58.9816 182.76,59.3149 178.5,56.5C 177.833,55.5 177.167,54.5 176.5,53.5C 175.271,50.5521 175.604,47.7187 177.5,45C 187.829,41.5119 192.163,45.0119 190.5,55.5 Z"/></g>
<g><path style="opacity:1" fill="#85d486" d="M 186.5,28.5 C 193.067,41.2991 199.9,53.9657 207,66.5C 207.399,66.2716 207.565,65.9382 207.5,65.5C 208.043,65.56 208.376,65.8933 208.5,66.5C 207.226,68.4514 205.56,69.7848 203.5,70.5C 201.046,70.3205 198.879,70.9872 197,72.5C 196.127,72.2645 195.293,71.9312 194.5,71.5C 193.167,72.5 191.833,73.5 190.5,74.5C 189.833,74.1667 189.167,73.8333 188.5,73.5C 186.333,74.9479 184,76.1146 181.5,77C 180.874,77.7504 180.374,78.5838 180,79.5C 179.55,76.8941 178.05,75.5608 175.5,75.5C 175.658,71.946 177.325,70.6127 180.5,71.5C 181.496,69.1837 183.163,67.517 185.5,66.5C 184.758,65.7132 183.925,65.0465 183,64.5C 182.282,65.4506 181.449,65.6172 180.5,65C 181.5,64.1667 182.5,63.3333 183.5,62.5C 181.713,61.684 180.046,60.684 178.5,59.5C 175.846,61.572 176.18,63.2387 179.5,64.5C 177.263,65.1321 175.597,66.4654 174.5,68.5C 173.217,65.6281 173.217,62.7947 174.5,60C 171.648,56.918 172.315,54.7513 176.5,53.5C 177.167,54.5 177.833,55.5 178.5,56.5C 177.262,56.81 177.262,57.31 178.5,58C 183.69,60.6529 188.023,59.8195 191.5,55.5C 192.451,54.0813 192.784,52.4147 192.5,50.5C 193.5,50.5 194.5,50.5 195.5,50.5C 195.649,49.448 195.483,48.448 195,47.5C 191.105,44.2914 186.771,41.6248 182,39.5C 180.004,39.9963 178.337,40.9963 177,42.5C 175.318,41.1354 175.151,39.6354 176.5,38C 179.486,38.1276 182.486,38.1276 185.5,38C 186.833,37.3333 187.833,36.3333 188.5,35C 187.107,33.8289 186.273,32.3289 186,30.5C 185.439,31.0219 184.772,31.3552 184,31.5C 182.4,28.6901 180.733,29.3567 179,33.5C 178.667,32.8333 178.333,32.1667 178,31.5C 177.323,33.689 176.156,34.0224 174.5,32.5C 173.813,34.2744 172.98,35.9411 172,37.5C 172,36.1667 172,34.8333 172,33.5C 170.701,36.0062 169.701,38.6728 169,41.5C 168.667,40.5 168.333,39.5 168,38.5C 166.477,40.7892 164.644,41.9558 162.5,42C 163.833,42.3333 165.167,42.6667 166.5,43C 161.956,43.1469 157.623,43.9802 153.5,45.5C 150.067,44.9465 147.067,43.6132 144.5,41.5C 147.178,40.8248 149.512,39.4915 151.5,37.5C 156.253,37.4518 160.253,35.7851 163.5,32.5C 166.733,31.391 170.066,30.5576 173.5,30C 174.756,29.5831 175.423,28.7498 175.5,27.5C 177.848,27.3305 180.182,26.9971 182.5,26.5C 184.355,26.3402 185.688,27.0069 186.5,28.5 Z"/></g>
<g><path style="opacity:1" fill="#b4ebc7" d="M 115.5,45.5 C 113.553,48.4638 111.553,51.4638 109.5,54.5C 107.847,54.6596 106.514,55.3263 105.5,56.5C 101.438,56.8688 99.7712,58.8688 100.5,62.5C 99.2223,62.7822 98.2223,63.4489 97.5,64.5C 96.7519,61.8511 97.0852,59.1844 98.5,56.5C 102.451,54.8637 106.118,52.8637 109.5,50.5C 111.5,48.8333 113.5,47.1667 115.5,45.5 Z"/></g>
<g><path style="opacity:1" fill="#4fa057" d="M 115.5,52.5 C 111.124,54.5282 107.124,57.1948 103.5,60.5C 103.733,58.9382 104.4,57.6049 105.5,56.5C 106.514,55.3263 107.847,54.6596 109.5,54.5C 111.297,53.2702 113.297,52.6036 115.5,52.5 Z"/></g>
<g><path style="opacity:1" fill="#4b9c55" d="M 190.5,55.5 C 190.833,55.5 191.167,55.5 191.5,55.5C 188.023,59.8195 183.69,60.6529 178.5,58C 177.262,57.31 177.262,56.81 178.5,56.5C 182.76,59.3149 186.76,58.9816 190.5,55.5 Z"/></g>
<g><path style="opacity:1" fill="#b36d6e" d="M 75.5,51.5 C 75.8333,51.5 76.1667,51.5 76.5,51.5C 76.16,53.679 75.16,55.5123 73.5,57C 66.2716,59.0642 60.605,63.2309 56.5,69.5C 59.2836,59.7156 65.6169,53.7156 75.5,51.5 Z"/></g>
<g><path style="opacity:1" fill="#56ac62" d="M 186.5,28.5 C 186.833,28.5 187.167,28.5 187.5,28.5C 194.911,40.3152 201.578,52.6486 207.5,65.5C 207.565,65.9382 207.399,66.2716 207,66.5C 199.9,53.9657 193.067,41.2991 186.5,28.5 Z"/></g>
<g><path style="opacity:1" fill="#caf1d1" d="M 206.5,72.5 C 208.572,71.4618 210.239,69.9618 211.5,68C 210.048,64.3862 208.381,60.8862 206.5,57.5C 207.729,55.4378 208.729,53.2711 209.5,51C 208.529,45.7245 206.696,40.8912 204,36.5C 203.586,36.9574 203.086,37.2907 202.5,37.5C 199.906,36.4078 197.739,34.7411 196,32.5C 194.817,33.731 193.651,33.731 192.5,32.5C 193.311,31.7836 193.978,30.9503 194.5,30C 192.72,27.7766 190.386,26.6099 187.5,26.5C 186.964,23.4453 186.131,20.4453 185,17.5C 181.598,13.2699 177.431,9.93656 172.5,7.5C 171.54,3.6865 169.207,2.1865 165.5,3C 163.886,5.12669 161.886,6.62669 159.5,7.5C 163.985,-0.745847 168.985,-1.24585 174.5,6C 176.087,6.86241 177.754,7.52907 179.5,8C 187.589,19.4242 197.089,29.5909 208,38.5C 208.969,43.2702 211.135,47.4369 214.5,51C 212.757,53.1778 211.09,55.3445 209.5,57.5C 210.779,61.2233 212.446,64.7233 214.5,68C 212.806,71.0775 210.139,72.5775 206.5,72.5 Z"/></g>
<g><path style="opacity:1" fill="#b8f7c2" d="M 166.5,73.5 C 165.833,73.5 165.167,73.5 164.5,73.5C 165.879,70.2592 167.545,67.0926 169.5,64C 168.45,56.1095 163.617,51.6095 155,50.5C 151.114,51.2784 147.447,52.6118 144,54.5C 141.355,58.0109 141.189,61.5109 143.5,65C 145.579,65.8077 147.579,65.641 149.5,64.5C 149.023,63.5224 148.357,62.6891 147.5,62C 148.547,59.0212 149.881,56.1879 151.5,53.5C 153.074,52.3691 154.741,52.2025 156.5,53C 158.903,55.6824 161.403,58.1824 164,60.5C 164.667,62.8333 164.667,65.1667 164,67.5C 162.989,68.3366 161.822,68.67 160.5,68.5C 160.92,66.9064 161.586,65.4064 162.5,64C 161.845,61.4948 160.178,60.1614 157.5,60C 159.481,59.3946 159.815,58.3946 158.5,57C 156.444,56.6892 154.444,56.1892 152.5,55.5C 150.804,57.6362 149.971,59.9695 150,62.5C 150.903,63.7014 152.069,64.5348 153.5,65C 152.167,66 152.167,67 153.5,68C 155.586,68.3153 157.586,68.8153 159.5,69.5C 158.726,70.1471 157.726,70.4805 156.5,70.5C 153.579,69.7452 150.746,68.7452 148,67.5C 146.833,67.6667 145.667,67.8333 144.5,68C 146.789,71.1295 149.456,73.6295 152.5,75.5C 150.046,74.7729 147.713,73.7729 145.5,72.5C 143.902,70.3021 142.569,67.9687 141.5,65.5C 139.485,59.7719 140.818,54.9386 145.5,51C 151.806,47.7281 158.139,47.7281 164.5,51C 171.736,57.8682 172.403,65.3682 166.5,73.5 Z"/></g>
<g><path style="opacity:1" fill="#85d088" d="M 160.5,68.5 C 160.5,69.1667 160.167,69.5 159.5,69.5C 157.586,68.8153 155.586,68.3153 153.5,68C 152.167,67 152.167,66 153.5,65C 152.069,64.5348 150.903,63.7014 150,62.5C 149.971,59.9695 150.804,57.6362 152.5,55.5C 154.444,56.1892 156.444,56.6892 158.5,57C 159.815,58.3946 159.481,59.3946 157.5,60C 160.178,60.1614 161.845,61.4948 162.5,64C 161.586,65.4064 160.92,66.9064 160.5,68.5 Z"/></g>
<g><path style="opacity:1" fill="#bbf4c7" d="M 164.5,73.5 C 160.891,76.3237 156.891,76.9904 152.5,75.5C 149.456,73.6295 146.789,71.1295 144.5,68C 145.667,67.8333 146.833,67.6667 148,67.5C 150.746,68.7452 153.579,69.7452 156.5,70.5C 157.726,70.4805 158.726,70.1471 159.5,69.5C 160.167,69.5 160.5,69.1667 160.5,68.5C 161.822,68.67 162.989,68.3366 164,67.5C 164.667,65.1667 164.667,62.8333 164,60.5C 161.403,58.1824 158.903,55.6824 156.5,53C 154.741,52.2025 153.074,52.3691 151.5,53.5C 149.881,56.1879 148.547,59.0212 147.5,62C 148.357,62.6891 149.023,63.5224 149.5,64.5C 147.579,65.641 145.579,65.8077 143.5,65C 141.189,61.5109 141.355,58.0109 144,54.5C 147.447,52.6118 151.114,51.2784 155,50.5C 163.617,51.6095 168.45,56.1095 169.5,64C 167.545,67.0926 165.879,70.2592 164.5,73.5 Z"/></g>
<g><path style="opacity:1" fill="#6dbe80" d="M 100.5,62.5 C 101.499,65.1618 102.499,67.8284 103.5,70.5C 101.167,68.8333 99.1667,66.8333 97.5,64.5C 98.2223,63.4489 99.2223,62.7822 100.5,62.5 Z"/></g>
<g><path style="opacity:1" fill="#a9e2bf" d="M 25.5,64.5 C 23.201,68.3328 21.0343,72.3328 19,76.5C 17.3853,77.3862 15.8853,78.3862 14.5,79.5C 17.4365,73.9586 21.1031,68.9586 25.5,64.5 Z"/></g>
<g><path style="opacity:1" fill="#8ee6af" d="M 47.5,55.5 C 45.101,58.572 43.101,61.9054 41.5,65.5C 41.5,66.1667 41.1667,66.5 40.5,66.5C 38.6916,66.4914 37.0249,66.9914 35.5,68C 33.8333,70.3333 31.8333,72.3333 29.5,74C 29.8333,74.3333 30.1667,74.6667 30.5,75C 29.552,75.4828 28.552,75.6495 27.5,75.5C 27.8804,78.7916 26.5471,81.1249 23.5,82.5C 21.4031,87.0314 19.0697,91.3648 16.5,95.5C 14.607,92.382 13.2736,89.0487 12.5,85.5C 13.7545,83.6663 14.4211,81.6663 14.5,79.5C 15.8853,78.3862 17.3853,77.3862 19,76.5C 21.0343,72.3328 23.201,68.3328 25.5,64.5C 27.8998,61.0969 30.8998,58.4302 34.5,56.5C 37.1318,54.8866 39.7984,53.22 42.5,51.5C 44.0026,52.0522 45.6693,52.0522 47.5,51.5C 47.5,52.8333 47.5,54.1667 47.5,55.5 Z"/></g>
<g><path style="opacity:1" fill="#baf3c7" d="M 105.5,56.5 C 104.4,57.6049 103.733,58.9382 103.5,60.5C 106.434,65.3682 109.1,70.3682 111.5,75.5C 111.838,77.854 112.338,80.1873 113,82.5C 116.83,87.1573 118.997,92.4907 119.5,98.5C 114.913,90.9955 110.58,83.3288 106.5,75.5C 105.737,73.6316 104.737,71.9649 103.5,70.5C 102.499,67.8284 101.499,65.1618 100.5,62.5C 99.7712,58.8688 101.438,56.8688 105.5,56.5 Z"/></g>
<g><path style="opacity:1" fill="#d89da9" d="M 63.5,42.5 C 67.1667,42.5 70.8333,42.5 74.5,42.5C 74.9629,45.4824 75.2962,48.4824 75.5,51.5C 65.6169,53.7156 59.2836,59.7156 56.5,69.5C 55.5975,72.3915 55.2641,75.3915 55.5,78.5C 58.8621,78.0695 61.6954,79.0695 64,81.5C 65.1285,88.2173 63.6285,94.2173 59.5,99.5C 56.482,101.463 53.1487,101.963 49.5,101C 46.5505,98.3607 43.2171,96.5274 39.5,95.5C 38.5423,94.0384 37.3756,92.7051 36,91.5C 35.6232,92.9423 34.7899,93.9423 33.5,94.5C 33.5751,91.7938 33.9084,89.1272 34.5,86.5C 35.8149,85.5244 37.1482,84.5244 38.5,83.5C 39.3642,79.1843 40.0309,74.851 40.5,70.5C 41.339,69.3588 42.0057,68.0255 42.5,66.5C 42.3764,65.8933 42.0431,65.56 41.5,65.5C 43.101,61.9054 45.101,58.572 47.5,55.5C 49.0737,54.0158 50.407,52.3492 51.5,50.5C 55.2458,47.4152 59.2458,44.7485 63.5,42.5 Z"/></g>
<g><path style="opacity:1" fill="#85d285" d="M 139.5,44.5 C 140.252,48.4744 139.918,52.4744 138.5,56.5C 138.676,60.0042 139.676,63.0042 141.5,65.5C 142.569,67.9687 143.902,70.3021 145.5,72.5C 148.174,75.9988 151.84,77.6654 156.5,77.5C 160.574,77.7892 163.908,76.4559 166.5,73.5C 169.324,72.0888 171.99,72.2555 174.5,74C 172.568,76.5369 170.901,79.2035 169.5,82C 168.234,82.3095 167.067,82.8095 166,83.5C 159.405,86.6123 152.238,89.4456 144.5,92C 143.011,93.4685 141.677,94.9685 140.5,96.5C 139.5,96.8333 138.833,97.5 138.5,98.5C 135.22,99.3694 131.887,100.036 128.5,100.5C 127.167,100.167 125.833,99.8333 124.5,99.5C 120.147,91.4563 115.813,83.4563 111.5,75.5C 109.1,70.3682 106.434,65.3682 103.5,60.5C 107.124,57.1948 111.124,54.5282 115.5,52.5C 119.889,51.5975 123.889,49.9308 127.5,47.5C 131.647,47.005 135.647,46.005 139.5,44.5 Z"/></g>
<g><path style="opacity:1" fill="#b8f4c2" d="M 132.5,81.5 C 126.257,82.7199 122.257,80.3866 120.5,74.5C 119.731,68.682 122.231,65.682 128,65.5C 135.969,65.8001 138.969,69.8001 137,77.5C 135.603,79.0703 134.103,80.4036 132.5,81.5 Z"/></g>
<g><path style="opacity:1" fill="#489a53" d="M 145.5,72.5 C 147.713,73.7729 150.046,74.7729 152.5,75.5C 156.891,76.9904 160.891,76.3237 164.5,73.5C 165.167,73.5 165.833,73.5 166.5,73.5C 163.908,76.4559 160.574,77.7892 156.5,77.5C 151.84,77.6654 148.174,75.9988 145.5,72.5 Z"/></g>
<g><path style="opacity:1" fill="#23373e" d="M 40.5,70.5 C 40.0309,74.851 39.3642,79.1843 38.5,83.5C 37.1482,84.5244 35.8149,85.5244 34.5,86.5C 34.41,84.3037 34.0767,82.137 33.5,80C 34.4764,77.8819 35.3097,75.7152 36,73.5C 37.129,71.8588 38.629,70.8588 40.5,70.5 Z"/></g>
<g><path style="opacity:1" fill="#418e49" d="M 120.5,74.5 C 122.257,80.3866 126.257,82.7199 132.5,81.5C 133.738,81.81 133.738,82.31 132.5,83C 126.285,84.0604 121.952,81.7271 119.5,76C 119.57,75.2352 119.903,74.7352 120.5,74.5 Z"/></g>
<g><path style="opacity:1" fill="#b3f5bc" d="M 111.5,75.5 C 115.813,83.4563 120.147,91.4563 124.5,99.5C 125.833,99.8333 127.167,100.167 128.5,100.5C 131.887,100.036 135.22,99.3694 138.5,98.5C 139.209,99.404 140.209,99.7373 141.5,99.5C 138.575,101.696 135.242,103.029 131.5,103.5C 129.254,102.79 126.92,102.29 124.5,102C 123.115,100.351 121.449,99.1839 119.5,98.5C 118.997,92.4907 116.83,87.1573 113,82.5C 112.338,80.1873 111.838,77.854 111.5,75.5 Z"/></g>
<g><path style="opacity:1" fill="#1b3c3b" d="M 41.5,65.5 C 42.0431,65.56 42.3764,65.8933 42.5,66.5C 42.0057,68.0255 41.339,69.3588 40.5,70.5C 38.629,70.8588 37.129,71.8588 36,73.5C 35.3097,75.7152 34.4764,77.8819 33.5,80C 34.0767,82.137 34.41,84.3037 34.5,86.5C 33.8826,86.6107 33.3826,86.944 33,87.5C 32.8184,90.2263 32.3184,92.8929 31.5,95.5C 30.5745,94.3595 29.7412,94.3595 29,95.5C 29.1873,98.8891 29.0206,102.222 28.5,105.5C 25.951,102.386 23.951,99.0529 22.5,95.5C 22.0698,99.3155 20.0698,101.649 16.5,102.5C 21.4842,88.5438 29.4842,76.5438 40.5,66.5C 41.1667,66.5 41.5,66.1667 41.5,65.5 Z"/></g>
<g><path style="opacity:1" fill="#93e7b4" d="M 191.5,78.5 C 193.521,85.0687 196.521,91.0687 200.5,96.5C 199.675,97.3857 198.675,97.719 197.5,97.5C 194.763,97.4013 192.096,97.7347 189.5,98.5C 187.656,94.1362 185.323,90.1362 182.5,86.5C 182.573,84.9731 181.906,83.9731 180.5,83.5C 183.802,81.2771 187.468,79.6105 191.5,78.5 Z"/></g>
<g><path style="opacity:1" fill="#92deb1" d="M 40.5,66.5 C 29.4842,76.5438 21.4842,88.5438 16.5,102.5C 14.9748,105.079 13.6414,107.746 12.5,110.5C 12.3597,106.492 13.3597,102.826 15.5,99.5C 14.1521,95.7803 12.6521,92.1136 11,88.5C 9.61128,91.5668 7.77794,94.2334 5.5,96.5C 7.26676,90.0966 10.2668,84.4299 14.5,79.5C 14.4211,81.6663 13.7545,83.6663 12.5,85.5C 13.2736,89.0487 14.607,92.382 16.5,95.5C 19.0697,91.3648 21.4031,87.0314 23.5,82.5C 26.5471,81.1249 27.8804,78.7916 27.5,75.5C 28.552,75.6495 29.552,75.4828 30.5,75C 30.1667,74.6667 29.8333,74.3333 29.5,74C 31.8333,72.3333 33.8333,70.3333 35.5,68C 37.0249,66.9914 38.6916,66.4914 40.5,66.5 Z"/></g>
<g><path style="opacity:1" fill="#1c423c" d="M 180.5,83.5 C 181.906,83.9731 182.573,84.9731 182.5,86.5C 181.305,86.3225 180.138,85.9891 179,85.5C 177.193,87.3202 175.027,88.4869 172.5,89C 170.657,93.2563 167.657,94.7563 163.5,93.5C 157.947,94.943 152.947,97.443 148.5,101C 146.134,101.44 143.801,101.94 141.5,102.5C 142.833,101.167 144.167,99.8333 145.5,98.5C 157.131,93.1782 168.798,88.1782 180.5,83.5 Z"/></g>
<g><path style="opacity:1" fill="#b25f59" d="M 39.5,95.5 C 38.325,95.281 37.325,95.6143 36.5,96.5C 37.5244,97.8518 38.5244,99.1851 39.5,100.5C 36.5,99.5 34.5,97.5 33.5,94.5C 34.7899,93.9423 35.6232,92.9423 36,91.5C 37.3756,92.7051 38.5423,94.0384 39.5,95.5 Z"/></g>
<g><path style="opacity:1" fill="#aae3c0" d="M 196.5,77.5 C 195.357,77.9081 194.357,78.5748 193.5,79.5C 197.931,86.3593 201.264,93.6926 203.5,101.5C 200.708,101.378 198.708,100.044 197.5,97.5C 198.675,97.719 199.675,97.3857 200.5,96.5C 196.521,91.0687 193.521,85.0687 191.5,78.5C 192.641,77.661 193.974,76.9943 195.5,76.5C 196.107,76.6236 196.44,76.9569 196.5,77.5 Z"/></g>
<g><path style="opacity:1" fill="#4b975f" d="M 145.5,98.5 C 144.167,99.8333 142.833,101.167 141.5,102.5C 139.446,103.609 137.279,104.609 135,105.5C 133.862,105.011 132.695,104.678 131.5,104.5C 131.5,104.167 131.5,103.833 131.5,103.5C 135.242,103.029 138.575,101.696 141.5,99.5C 142.833,99.1667 144.167,98.8333 145.5,98.5 Z"/></g>
<g><path style="opacity:1" fill="#bc5846" d="M 39.5,95.5 C 43.2171,96.5274 46.5505,98.3607 49.5,101C 53.1487,101.963 56.482,101.463 59.5,99.5C 58.9213,102.331 57.588,104.664 55.5,106.5C 52.7628,106.599 50.0961,106.265 47.5,105.5C 44.4887,104.331 41.822,102.664 39.5,100.5C 38.5244,99.1851 37.5244,97.8518 36.5,96.5C 37.325,95.6143 38.325,95.281 39.5,95.5 Z"/></g>
<g><path style="opacity:1" fill="#b7ebc8" d="M 119.5,98.5 C 121.449,99.1839 123.115,100.351 124.5,102C 126.92,102.29 129.254,102.79 131.5,103.5C 131.5,103.833 131.5,104.167 131.5,104.5C 128.886,105.545 126.22,106.045 123.5,106C 121.506,103.842 120.172,101.342 119.5,98.5 Z"/></g>
<g><path style="opacity:1" fill="#794c4b" d="M 47.5,105.5 C 50.0961,106.265 52.7628,106.599 55.5,106.5C 54.5514,107.152 53.3847,107.486 52,107.5C 49.9919,107.693 48.4919,107.026 47.5,105.5 Z"/></g>
<g><path style="opacity:1" fill="#1c413c" d="M 106.5,75.5 C 110.58,83.3288 114.913,90.9955 119.5,98.5C 120.172,101.342 121.506,103.842 123.5,106C 126.22,106.045 128.886,105.545 131.5,104.5C 132.695,104.678 133.862,105.011 135,105.5C 137.279,104.609 139.446,103.609 141.5,102.5C 140.859,103.482 140.193,104.482 139.5,105.5C 136.331,105.983 133.664,107.316 131.5,109.5C 127.936,108.953 124.436,108.286 121,107.5C 120.667,107.833 120.333,108.167 120,108.5C 116.068,101.715 112.901,94.5481 110.5,87C 106.885,84.091 105.552,80.2577 106.5,75.5 Z"/></g>
<g><path style="opacity:1" fill="#d59fa8" d="M 197.5,97.5 C 198.708,100.044 200.708,101.378 203.5,101.5C 206.464,103.962 209.297,106.629 212,109.5C 212.545,114.321 211.379,118.654 208.5,122.5C 206.61,122.297 205.11,122.963 204,124.5C 202.498,129.543 200.998,134.543 199.5,139.5C 199.167,139.5 198.833,139.5 198.5,139.5C 197.528,135.051 198.694,131.051 202,127.5C 202.495,125.527 202.662,123.527 202.5,121.5C 201.5,121.5 200.5,121.5 199.5,121.5C 199.387,118.951 200.054,116.618 201.5,114.5C 204.626,114.016 207.293,112.683 209.5,110.5C 209,110.167 208.5,109.833 208,109.5C 206.026,111.372 203.859,111.705 201.5,110.5C 201.977,109.522 202.643,108.689 203.5,108C 200.144,108.613 196.81,108.446 193.5,107.5C 193.068,102.805 191.401,101.972 188.5,105C 191.721,107.96 195.388,110.46 199.5,112.5C 198.406,114.836 197.073,114.836 195.5,112.5C 193.5,113.833 191.833,115.5 190.5,117.5C 190.167,117.333 189.833,117.167 189.5,117C 189.182,114.958 189.015,112.791 189,110.5C 187.456,107.736 186.289,107.903 185.5,111C 184.255,111.791 182.922,112.291 181.5,112.5C 183.767,107.576 186.433,102.909 189.5,98.5C 192.096,97.7347 194.763,97.4013 197.5,97.5 Z"/></g>
<g><path style="opacity:1" fill="#db9ca9" d="M 198.5,139.5 C 193.926,144.566 188.593,148.733 182.5,152C 178.534,153.867 174.367,155.033 170,155.5C 167.966,155.646 166.299,154.98 165,153.5C 164.802,155.382 164.302,157.048 163.5,158.5C 162.844,156.516 162.178,154.516 161.5,152.5C 162.222,150.056 163.222,147.722 164.5,145.5C 170.09,143.598 175.423,141.098 180.5,138C 184.582,135.095 187.249,131.262 188.5,126.5C 189.283,124.657 189.95,122.657 190.5,120.5C 188.577,119.692 186.577,119.192 184.5,119C 183.953,118.075 183.287,117.242 182.5,116.5C 181.548,118.045 181.215,119.712 181.5,121.5C 180.225,118.604 180.225,115.604 181.5,112.5C 182.922,112.291 184.255,111.791 185.5,111C 186.289,107.903 187.456,107.736 189,110.5C 189.015,112.791 189.182,114.958 189.5,117C 189.833,117.167 190.167,117.333 190.5,117.5C 191.833,115.5 193.5,113.833 195.5,112.5C 197.073,114.836 198.406,114.836 199.5,112.5C 195.388,110.46 191.721,107.96 188.5,105C 191.401,101.972 193.068,102.805 193.5,107.5C 196.81,108.446 200.144,108.613 203.5,108C 202.643,108.689 201.977,109.522 201.5,110.5C 203.859,111.705 206.026,111.372 208,109.5C 208.5,109.833 209,110.167 209.5,110.5C 207.293,112.683 204.626,114.016 201.5,114.5C 200.054,116.618 199.387,118.951 199.5,121.5C 200.5,121.5 201.5,121.5 202.5,121.5C 202.662,123.527 202.495,125.527 202,127.5C 198.694,131.051 197.528,135.051 198.5,139.5 Z"/></g>
<g><path style="opacity:1" fill="#a1b4d4" d="M 71.5,108.5 C 84.2107,107.676 95.544,111.176 105.5,119C 109.5,119.333 113.5,119.667 117.5,120C 123.807,121.82 129.474,124.653 134.5,128.5C 122.363,121.573 109.363,119.073 95.5,121C 96.8333,120.333 97.8333,119.333 98.5,118C 95.2135,114.523 91.2135,112.357 86.5,111.5C 85.2284,111.57 84.0617,111.903 83,112.5C 79.2227,110.968 75.3894,109.635 71.5,108.5 Z"/></g>
<g><path style="opacity:1" fill="#90e6b0" d="M 12.5,110.5 C 12.5,110.833 12.5,111.167 12.5,111.5C 11.5028,111.47 10.8361,111.97 10.5,113C 9.87291,115.135 9.37291,117.302 9,119.5C 8.83161,127.521 8.33161,135.521 7.5,143.5C 7.03238,148.023 5.69905,152.523 3.5,157C 3.6448,157.772 3.97814,158.439 4.5,159C 2.80343,159.384 1.13676,159.218 -0.5,158.5C -0.5,143.167 -0.5,127.833 -0.5,112.5C 0.903925,106.956 2.90393,101.623 5.5,96.5C 7.77794,94.2334 9.61128,91.5668 11,88.5C 12.6521,92.1136 14.1521,95.7803 15.5,99.5C 13.3597,102.826 12.3597,106.492 12.5,110.5 Z"/></g>
<g><path style="opacity:1" fill="#b66761" d="M 188.5,126.5 C 187.051,124.836 185.051,124.002 182.5,124C 181.748,123.329 181.414,122.496 181.5,121.5C 181.215,119.712 181.548,118.045 182.5,116.5C 183.287,117.242 183.953,118.075 184.5,119C 186.577,119.192 188.577,119.692 190.5,120.5C 189.95,122.657 189.283,124.657 188.5,126.5 Z"/></g>
<g><path style="opacity:1" fill="#94aad9" d="M 71.5,108.5 C 75.3894,109.635 79.2227,110.968 83,112.5C 84.0617,111.903 85.2284,111.57 86.5,111.5C 91.2135,112.357 95.2135,114.523 98.5,118C 97.8333,119.333 96.8333,120.333 95.5,121C 109.363,119.073 122.363,121.573 134.5,128.5C 142.466,133.405 147.8,140.405 150.5,149.5C 153.338,157.734 153.005,165.734 149.5,173.5C 150.122,166.836 150.288,160.169 150,153.5C 146.473,150.533 144.806,146.199 145,140.5C 140.199,137.446 139.532,138.113 143,142.5C 143.498,145.482 143.665,148.482 143.5,151.5C 141.359,146.019 138.025,141.352 133.5,137.5C 130.875,134.185 127.542,131.851 123.5,130.5C 118.729,127.362 113.396,126.029 107.5,126.5C 101.058,125.985 95.3918,127.651 90.5,131.5C 82.3154,136.195 77.3154,143.195 75.5,152.5C 73.8406,148.81 73.0072,144.81 73,140.5C 72.586,140.957 72.086,141.291 71.5,141.5C 70.7751,145.532 69.9418,149.532 69,153.5C 68.6667,153.167 68.3333,152.833 68,152.5C 67.8413,154.343 67.3413,155.009 66.5,154.5C 66.5,153.167 66.5,151.833 66.5,150.5C 68.9695,146.905 69.9695,142.905 69.5,138.5C 73.0165,136.664 76.0165,133.997 78.5,130.5C 80.95,129.223 83.2833,127.723 85.5,126C 86.6956,125.346 86.6956,124.846 85.5,124.5C 84.5539,124.987 83.5539,125.32 82.5,125.5C 76.8608,122.612 71.5274,122.945 66.5,126.5C 65.8359,127.648 65.6692,128.981 66,130.5C 61.2763,132.712 58.7763,136.379 58.5,141.5C 57.8826,141.389 57.3826,141.056 57,140.5C 54.2968,143.84 53.9635,147.507 56,151.5C 56.6543,150.304 57.1543,150.304 57.5,151.5C 56.9747,152.192 56.3081,152.692 55.5,153C 56.1737,154.751 56.507,156.417 56.5,158C 55.6433,158.689 54.9767,159.522 54.5,160.5C 55.9069,163.822 56.2402,167.155 55.5,170.5C 54.1667,169.833 52.8333,169.167 51.5,168.5C 50.8503,170.184 49.8503,171.517 48.5,172.5C 45.8061,170.473 43.4728,168.139 41.5,165.5C 40.2271,163.287 39.2271,160.954 38.5,158.5C 38.1561,155.478 36.9894,152.812 35,150.5C 34.5034,148.19 34.3367,145.857 34.5,143.5C 37.2456,127.763 45.9123,116.763 60.5,110.5C 64.1359,109.674 67.8026,109.008 71.5,108.5 Z"/></g>
<g><path style="opacity:1" fill="#505f92" d="M 70.5,116.5 C 70.1961,117.15 69.8627,117.817 69.5,118.5C 72.9773,119.167 76.3107,119.834 79.5,120.5C 73.7383,120.149 68.0716,120.649 62.5,122C 57.16,125.586 52.3266,129.752 48,134.5C 47.5357,133.906 47.369,133.239 47.5,132.5C 52.3874,123.295 60.0541,117.961 70.5,116.5 Z"/></g>
<g><path style="opacity:1" fill="#3d4b72" d="M 70.5,116.5 C 77.2137,116.363 83.8804,116.863 90.5,118C 91.5,118.833 92.5,119.667 93.5,120.5C 92.9747,121.192 92.3081,121.692 91.5,122C 87.5246,121.983 83.5246,121.816 79.5,121.5C 79.5,121.167 79.5,120.833 79.5,120.5C 76.3107,119.834 72.9773,119.167 69.5,118.5C 69.8627,117.817 70.1961,117.15 70.5,116.5 Z"/></g>
<g><path style="opacity:1" fill="#a5bae0" d="M 78.5,130.5 C 78.5,129.5 78.5,128.5 78.5,127.5C 75.9339,127.344 73.4339,127.678 71,128.5C 69.5936,127.586 68.0936,126.92 66.5,126.5C 71.5274,122.945 76.8608,122.612 82.5,125.5C 83.5539,125.32 84.5539,124.987 85.5,124.5C 86.6956,124.846 86.6956,125.346 85.5,126C 83.2833,127.723 80.95,129.223 78.5,130.5 Z"/></g>
<g><path style="opacity:1" fill="#8296cd" d="M 79.5,120.5 C 79.5,120.833 79.5,121.167 79.5,121.5C 67.2387,122.148 56.572,127.481 47.5,137.5C 44.9191,145.469 44.0857,145.136 45,136.5C 45.9344,135.142 46.7677,133.808 47.5,132.5C 47.369,133.239 47.5357,133.906 48,134.5C 52.3266,129.752 57.16,125.586 62.5,122C 68.0716,120.649 73.7383,120.149 79.5,120.5 Z"/></g>
<g><path style="opacity:1" fill="#3b528d" d="M 123.5,130.5 C 122.883,130.611 122.383,130.944 122,131.5C 114.327,128.499 106.493,127.999 98.5,130C 99.448,130.483 100.448,130.649 101.5,130.5C 96.8122,131.847 92.1455,133.514 87.5,135.5C 88.5,134.167 89.5,132.833 90.5,131.5C 95.3918,127.651 101.058,125.985 107.5,126.5C 113.396,126.029 118.729,127.362 123.5,130.5 Z"/></g>
<g><path style="opacity:1" fill="#1f3a49" d="M 60.5,110.5 C 45.9123,116.763 37.2456,127.763 34.5,143.5C 33.2027,148.066 33.2027,152.733 34.5,157.5C 37.3457,162.993 39.679,168.66 41.5,174.5C 39.2469,171.612 37.0802,168.612 35,165.5C 32.6757,156.318 31.6757,146.985 32,137.5C 35.497,130.586 38.8304,123.586 42,116.5C 43.0616,115.101 44.395,114.101 46,113.5C 50.4599,115.608 52.9599,114.274 53.5,109.5C 55.861,109.674 58.1944,110.007 60.5,110.5 Z"/></g>
<g><path style="opacity:1" fill="#183372" d="M 123.5,130.5 C 127.542,131.851 130.875,134.185 133.5,137.5C 135.586,140.144 137.252,143.144 138.5,146.5C 138.333,146.833 138.167,147.167 138,147.5C 137.148,146.429 136.315,145.429 135.5,144.5C 134.5,144.167 133.833,143.5 133.5,142.5C 130.522,138.293 126.522,135.626 121.5,134.5C 119.333,132.489 116.666,131.322 113.5,131C 109.514,130.501 105.514,130.334 101.5,130.5C 100.448,130.649 99.448,130.483 98.5,130C 106.493,127.999 114.327,128.499 122,131.5C 122.383,130.944 122.883,130.611 123.5,130.5 Z"/></g>
<g><path style="opacity:1" fill="#5d79be" d="M 101.5,130.5 C 105.514,130.334 109.514,130.501 113.5,131C 116.666,131.322 119.333,132.489 121.5,134.5C 114.128,132.312 106.795,131.812 99.5,133C 94.0878,134.848 89.0878,137.348 84.5,140.5C 85.925,139.078 86.925,137.411 87.5,135.5C 92.1455,133.514 96.8122,131.847 101.5,130.5 Z"/></g>
<g><path style="opacity:0.888" fill="#a6e1bb" d="M 208.5,122.5 C 209.815,131.265 209.815,139.932 208.5,148.5C 208.666,140.826 208.5,133.159 208,125.5C 207.282,124.549 206.449,124.383 205.5,125C 203.481,129.947 202.147,135.114 201.5,140.5C 200.139,142.028 198.972,143.695 198,145.5C 197.667,148.833 197.333,152.167 197,155.5C 196.722,156.416 196.222,157.082 195.5,157.5C 196.051,154.193 196.384,150.86 196.5,147.5C 196.5,146.833 196.5,146.167 196.5,145.5C 197.35,143.397 198.35,141.397 199.5,139.5C 200.998,134.543 202.498,129.543 204,124.5C 205.11,122.963 206.61,122.297 208.5,122.5 Z"/></g>
<g><path style="opacity:1" fill="#93d6f7" d="M 66.5,126.5 C 68.0936,126.92 69.5936,127.586 71,128.5C 73.4339,127.678 75.9339,127.344 78.5,127.5C 78.5,128.5 78.5,129.5 78.5,130.5C 76.0165,133.997 73.0165,136.664 69.5,138.5C 69.9695,142.905 68.9695,146.905 66.5,150.5C 62.1706,149.504 59.5039,146.837 58.5,142.5C 58.5,142.167 58.5,141.833 58.5,141.5C 58.7763,136.379 61.2763,132.712 66,130.5C 65.6692,128.981 65.8359,127.648 66.5,126.5 Z"/></g>
<g><path style="opacity:1" fill="#839cd9" d="M 121.5,134.5 C 121.804,135.15 122.137,135.817 122.5,136.5C 126.195,138.547 129.862,140.547 133.5,142.5C 133.833,143.5 134.5,144.167 135.5,144.5C 136.011,147.022 137.011,149.355 138.5,151.5C 138.631,152.239 138.464,152.906 138,153.5C 130.891,140.949 120.058,134.616 105.5,134.5C 102.467,134.669 99.4673,135.002 96.5,135.5C 96.2627,136.791 96.596,137.791 97.5,138.5C 97.5,139.5 97.5,140.5 97.5,141.5C 95.1205,142.567 94.1205,141.567 94.5,138.5C 88.9793,140.431 83.9793,143.098 79.5,146.5C 80.7007,144.091 82.3674,142.091 84.5,140.5C 89.0878,137.348 94.0878,134.848 99.5,133C 106.795,131.812 114.128,132.312 121.5,134.5 Z"/></g>
<g><path style="opacity:1" fill="#19413b" d="M 16.5,102.5 C 13.9724,113.207 11.9724,124.041 10.5,135C 10.6667,137.5 10.8333,140 11,142.5C 11.6667,137.833 12.3333,133.167 13,128.5C 12.7153,139.523 12.882,150.523 13.5,161.5C 8.69,145.041 8.35667,128.374 12.5,111.5C 12.5,111.167 12.5,110.833 12.5,110.5C 13.6414,107.746 14.9748,105.079 16.5,102.5 Z"/></g>
<g><path style="opacity:1" fill="#57699e" d="M 90.5,131.5 C 89.5,132.833 88.5,134.167 87.5,135.5C 86.925,137.411 85.925,139.078 84.5,140.5C 82.3674,142.091 80.7007,144.091 79.5,146.5C 78.7828,148.937 77.7828,151.27 76.5,153.5C 75.8933,153.376 75.56,153.043 75.5,152.5C 77.3154,143.195 82.3154,136.195 90.5,131.5 Z"/></g>
<g><path style="opacity:1" fill="#5b75b8" d="M 121.5,134.5 C 126.522,135.626 130.522,138.293 133.5,142.5C 129.862,140.547 126.195,138.547 122.5,136.5C 122.137,135.817 121.804,135.15 121.5,134.5 Z"/></g>
<g><path style="opacity:1" fill="#365d9d" d="M 58.5,142.5 C 59.5039,146.837 62.1706,149.504 66.5,150.5C 66.5,151.833 66.5,153.167 66.5,154.5C 66.1667,154.5 65.8333,154.5 65.5,154.5C 65.719,153.325 65.3857,152.325 64.5,151.5C 62.7419,150.872 61.2419,149.872 60,148.5C 59.805,149.819 59.9717,151.153 60.5,152.5C 60.1667,152.5 59.8333,152.5 59.5,152.5C 58.6921,150.074 57.6921,147.741 56.5,145.5C 56.4534,143.962 57.1201,142.962 58.5,142.5 Z"/></g>
<g><path style="opacity:1" fill="#0e3076" d="M 65.5,154.5 C 63.4862,154.608 61.8195,153.942 60.5,152.5C 59.9717,151.153 59.805,149.819 60,148.5C 61.2419,149.872 62.7419,150.872 64.5,151.5C 65.3857,152.325 65.719,153.325 65.5,154.5 Z"/></g>
<g><path style="opacity:1" fill="#4d5f92" d="M 133.5,137.5 C 138.025,141.352 141.359,146.019 143.5,151.5C 143.463,165.332 142.297,165.666 140,152.5C 139.617,151.944 139.117,151.611 138.5,151.5C 137.011,149.355 136.011,147.022 135.5,144.5C 136.315,145.429 137.148,146.429 138,147.5C 138.167,147.167 138.333,146.833 138.5,146.5C 137.252,143.144 135.586,140.144 133.5,137.5 Z"/></g>
<g><path style="opacity:1" fill="#1c483c" d="M 196.5,147.5 C 196.384,150.86 196.051,154.193 195.5,157.5C 194.342,160.989 193.009,164.322 191.5,167.5C 192.979,161.266 194.146,154.933 195,148.5C 195.383,147.944 195.883,147.611 196.5,147.5 Z"/></g>
<g><path style="opacity:1" fill="#6074a4" d="M 34.5,143.5 C 34.3367,145.857 34.5034,148.19 35,150.5C 36.9894,152.812 38.1561,155.478 38.5,158.5C 37.0413,158.567 35.7079,158.234 34.5,157.5C 33.2027,152.733 33.2027,148.066 34.5,143.5 Z"/></g>
<g><path style="opacity:1" fill="#92e9b6" d="M 208.5,148.5 C 207.998,159.183 205.331,169.183 200.5,178.5C 197.026,182.878 194.026,187.544 191.5,192.5C 190.883,192.611 190.383,192.944 190,193.5C 189.781,192.062 189.281,190.729 188.5,189.5C 187.914,189.709 187.414,190.043 187,190.5C 186.421,186.797 186.588,183.131 187.5,179.5C 189.035,175.562 190.368,171.562 191.5,167.5C 193.009,164.322 194.342,160.989 195.5,157.5C 196.222,157.082 196.722,156.416 197,155.5C 197.333,152.167 197.667,148.833 198,145.5C 198.972,143.695 200.139,142.028 201.5,140.5C 202.147,135.114 203.481,129.947 205.5,125C 206.449,124.383 207.282,124.549 208,125.5C 208.5,133.159 208.666,140.826 208.5,148.5 Z"/></g>
<g><path style="opacity:1" fill="#93e2b2" d="M 12.5,111.5 C 8.35667,128.374 8.69,145.041 13.5,161.5C 14.6304,166.224 15.9637,170.891 17.5,175.5C 16.5,175.5 15.5,175.5 14.5,175.5C 12.0752,169.03 10.0752,162.364 8.5,155.5C 7.83333,158.167 7.16667,160.833 6.5,163.5C 5.91395,163.709 5.41395,164.043 5,164.5C 4.1816,167.227 4.34827,169.894 5.5,172.5C 7.6577,170.372 9.32436,171.038 10.5,174.5C 9.41263,175.105 8.24597,174.772 7,173.5C 6.83333,174.167 6.66667,174.833 6.5,175.5C 8.4543,179.739 10.121,184.072 11.5,188.5C 9.52594,186.572 8.02594,184.239 7,181.5C 3.9701,174.569 1.4701,167.569 -0.5,160.5C -0.5,159.833 -0.5,159.167 -0.5,158.5C 1.13676,159.218 2.80343,159.384 4.5,159C 3.97814,158.439 3.6448,157.772 3.5,157C 5.69905,152.523 7.03238,148.023 7.5,143.5C 8.33161,135.521 8.83161,127.521 9,119.5C 9.37291,117.302 9.87291,115.135 10.5,113C 10.8361,111.97 11.5028,111.47 12.5,111.5 Z"/></g>
<g><path style="opacity:1" fill="#c78c8e" d="M 198.5,139.5 C 198.833,139.5 199.167,139.5 199.5,139.5C 198.35,141.397 197.35,143.397 196.5,145.5C 189.576,153.91 180.742,159.244 170,161.5C 167.325,161.343 165.159,160.343 163.5,158.5C 164.302,157.048 164.802,155.382 165,153.5C 166.299,154.98 167.966,155.646 170,155.5C 174.367,155.033 178.534,153.867 182.5,152C 188.593,148.733 193.926,144.566 198.5,139.5 Z"/></g>
<g><path style="opacity:1" fill="#617abb" d="M 59.5,152.5 C 59.8333,152.5 60.1667,152.5 60.5,152.5C 61.8195,153.942 63.4862,154.608 65.5,154.5C 65.5,156.167 65.5,157.833 65.5,159.5C 63.6951,162.64 62.6951,166.14 62.5,170C 62.3536,172.034 63.0203,173.701 64.5,175C 62.6016,175.64 62.2683,176.973 63.5,179C 63.3158,180.376 62.6491,181.209 61.5,181.5C 57.4945,180.502 54.1612,178.502 51.5,175.5C 54.3974,174.283 57.0641,172.616 59.5,170.5C 58.9598,169.252 58.2931,168.085 57.5,167C 60.1667,166.333 60.1667,165.667 57.5,165C 58.6765,163.326 60.0098,161.826 61.5,160.5C 59.3546,159.318 59.3546,157.818 61.5,156C 60.0267,155.29 59.3601,154.124 59.5,152.5 Z"/></g>
<g><path style="opacity:1" fill="#849cd6" d="M 58.5,141.5 C 58.5,141.833 58.5,142.167 58.5,142.5C 57.1201,142.962 56.4534,143.962 56.5,145.5C 57.6921,147.741 58.6921,150.074 59.5,152.5C 59.3601,154.124 60.0267,155.29 61.5,156C 59.3546,157.818 59.3546,159.318 61.5,160.5C 60.0098,161.826 58.6765,163.326 57.5,165C 60.1667,165.667 60.1667,166.333 57.5,167C 58.2931,168.085 58.9598,169.252 59.5,170.5C 57.0641,172.616 54.3974,174.283 51.5,175.5C 49.8564,175.19 48.8564,174.19 48.5,172.5C 49.8503,171.517 50.8503,170.184 51.5,168.5C 52.8333,169.167 54.1667,169.833 55.5,170.5C 56.2402,167.155 55.9069,163.822 54.5,160.5C 54.9767,159.522 55.6433,158.689 56.5,158C 56.507,156.417 56.1737,154.751 55.5,153C 56.3081,152.692 56.9747,152.192 57.5,151.5C 57.1543,150.304 56.6543,150.304 56,151.5C 53.9635,147.507 54.2968,143.84 57,140.5C 57.3826,141.056 57.8826,141.389 58.5,141.5 Z"/></g>
<g><path style="opacity:1" fill="#374f82" d="M 34.5,157.5 C 35.7079,158.234 37.0413,158.567 38.5,158.5C 39.2271,160.954 40.2271,163.287 41.5,165.5C 40.3871,166.946 40.2204,168.613 41,170.5C 43.1416,172.432 44.6416,174.765 45.5,177.5C 43.8595,176.853 42.5261,175.853 41.5,174.5C 39.679,168.66 37.3457,162.993 34.5,157.5 Z"/></g>
<g><path style="opacity:1" fill="#6576ab" d="M 70.5,169.5 C 69.8386,170.718 69.1719,172.051 68.5,173.5C 66.2961,170.553 65.2961,167.22 65.5,163.5C 66.9311,163.119 67.7645,162.119 68,160.5C 68.7388,163.546 69.5721,166.546 70.5,169.5 Z"/></g>
<g><path style="opacity:1" fill="#92a8db" d="M 138.5,151.5 C 139.117,151.611 139.617,151.944 140,152.5C 142.297,165.666 143.463,165.332 143.5,151.5C 143.665,148.482 143.498,145.482 143,142.5C 139.532,138.113 140.199,137.446 145,140.5C 144.806,146.199 146.473,150.533 150,153.5C 150.288,160.169 150.122,166.836 149.5,173.5C 146.004,179.418 141.67,184.585 136.5,189C 130.491,192.684 124.158,195.184 117.5,196.5C 109.599,197.056 101.932,196.056 94.5,193.5C 86.339,190.003 79.6723,184.669 74.5,177.5C 72.7622,175.079 71.4289,172.412 70.5,169.5C 69.5721,166.546 68.7388,163.546 68,160.5C 67.7645,162.119 66.9311,163.119 65.5,163.5C 65.5,162.167 65.5,160.833 65.5,159.5C 65.5,157.833 65.5,156.167 65.5,154.5C 65.8333,154.5 66.1667,154.5 66.5,154.5C 67.3413,155.009 67.8413,154.343 68,152.5C 68.3333,152.833 68.6667,153.167 69,153.5C 69.9418,149.532 70.7751,145.532 71.5,141.5C 72.086,141.291 72.586,140.957 73,140.5C 73.0072,144.81 73.8406,148.81 75.5,152.5C 75.56,153.043 75.8933,153.376 76.5,153.5C 77.7828,151.27 78.7828,148.937 79.5,146.5C 83.9793,143.098 88.9793,140.431 94.5,138.5C 94.1205,141.567 95.1205,142.567 97.5,141.5C 96.4261,143.216 94.7594,144.216 92.5,144.5C 91.2172,146.73 90.2172,149.063 89.5,151.5C 83.526,154.312 82.8594,158.146 87.5,163C 87.1667,163.333 86.8333,163.667 86.5,164C 88.3657,166.282 90.5324,167.115 93,166.5C 94.8821,170.57 96.0488,174.904 96.5,179.5C 97.1924,180.025 97.6924,180.692 98,181.5C 98.3333,181.167 98.6667,180.833 99,180.5C 99.3333,181.5 99.6667,182.5 100,183.5C 101.333,183.5 102.667,183.5 104,183.5C 106.04,185.353 108.373,186.686 111,187.5C 111.333,186.833 111.667,186.167 112,185.5C 116.142,185.785 120.309,185.785 124.5,185.5C 124.449,183.43 125.115,181.597 126.5,180C 125.728,178.779 124.728,177.779 123.5,177C 130.161,175.762 131.161,172.596 126.5,167.5C 126.5,167.167 126.5,166.833 126.5,166.5C 129.02,157.015 125.353,152.015 115.5,151.5C 116.929,150.766 117.929,149.599 118.5,148C 118.164,146.97 117.497,146.47 116.5,146.5C 120.546,144.008 120.213,141.841 115.5,140C 109.887,139.244 104.387,138.077 99,136.5C 97.9701,136.836 97.4701,137.503 97.5,138.5C 96.596,137.791 96.2627,136.791 96.5,135.5C 99.4673,135.002 102.467,134.669 105.5,134.5C 120.058,134.616 130.891,140.949 138,153.5C 138.464,152.906 138.631,152.239 138.5,151.5 Z"/></g>
<g><path style="opacity:1" fill="#567bbf" d="M 126.5,166.5 C 126.5,166.833 126.5,167.167 126.5,167.5C 126.723,172.069 124.723,175.069 120.5,176.5C 120.322,175.305 119.989,174.138 119.5,173C 121.708,170.622 124.042,168.456 126.5,166.5 Z"/></g>
<g><path style="opacity:1" fill="#092e72" d="M 106.5,164.5 C 106.167,164.5 105.833,164.5 105.5,164.5C 102.201,165.376 98.8678,165.543 95.5,165C 93.6763,164.34 92.343,163.173 91.5,161.5C 91.56,160.957 91.8933,160.624 92.5,160.5C 93.9122,161.806 95.5789,162.64 97.5,163C 100.695,163.181 103.695,163.681 106.5,164.5 Z"/></g>
<g><path style="opacity:1" fill="#377ac3" d="M 99.5,161.5 C 103.167,161.5 106.833,161.5 110.5,161.5C 110.33,162.822 110.663,163.989 111.5,165C 110.181,165.195 108.847,165.028 107.5,164.5C 107.918,163.778 108.584,163.278 109.5,163C 105.975,162.821 102.641,162.321 99.5,161.5 Z"/></g>
<g><path style="opacity:1" fill="#2555a2" d="M 90.5,155.5 C 92.1657,159.188 95.1657,161.188 99.5,161.5C 102.641,162.321 105.975,162.821 109.5,163C 108.584,163.278 107.918,163.778 107.5,164.5C 107.167,164.5 106.833,164.5 106.5,164.5C 103.695,163.681 100.695,163.181 97.5,163C 95.5789,162.64 93.9122,161.806 92.5,160.5C 91.8933,160.624 91.56,160.957 91.5,161.5C 90.2291,159.891 89.2291,158.058 88.5,156C 89.0944,155.536 89.7611,155.369 90.5,155.5 Z"/></g>
<g><path style="opacity:1" fill="#3364a6" d="M 116.5,146.5 C 117.497,146.47 118.164,146.97 118.5,148C 117.929,149.599 116.929,150.766 115.5,151.5C 112.813,151.664 110.146,151.497 107.5,151C 107.043,150.586 106.709,150.086 106.5,149.5C 109.547,148.708 112.88,147.708 116.5,146.5 Z"/></g>
<g><path style="opacity:1" fill="#86d1fb" d="M 116.5,146.5 C 112.88,147.708 109.547,148.708 106.5,149.5C 106.709,150.086 107.043,150.586 107.5,151C 110.146,151.497 112.813,151.664 115.5,151.5C 125.353,152.015 129.02,157.015 126.5,166.5C 124.042,168.456 121.708,170.622 119.5,173C 119.989,174.138 120.322,175.305 120.5,176.5C 119.5,176.5 118.5,176.5 117.5,176.5C 117.167,175.833 116.833,175.167 116.5,174.5C 111.539,175.069 106.539,174.402 101.5,172.5C 100.833,171.833 100.167,171.167 99.5,170.5C 99.1961,169.85 98.8627,169.183 98.5,168.5C 100.904,167.157 103.238,165.823 105.5,164.5C 105.833,164.5 106.167,164.5 106.5,164.5C 106.833,164.5 107.167,164.5 107.5,164.5C 108.847,165.028 110.181,165.195 111.5,165C 110.663,163.989 110.33,162.822 110.5,161.5C 106.833,161.5 103.167,161.5 99.5,161.5C 95.1657,161.188 92.1657,159.188 90.5,155.5C 90.1667,154.167 89.8333,152.833 89.5,151.5C 90.2172,149.063 91.2172,146.73 92.5,144.5C 94.7594,144.216 96.4261,143.216 97.5,141.5C 97.5,140.5 97.5,139.5 97.5,138.5C 97.4701,137.503 97.9701,136.836 99,136.5C 104.387,138.077 109.887,139.244 115.5,140C 120.213,141.841 120.546,144.008 116.5,146.5 Z"/></g>
<g><path style="opacity:1" fill="#1a5f96" d="M 113.5,161.5 C 115.225,161.843 115.725,162.843 115,164.5C 113.961,163.756 113.461,162.756 113.5,161.5 Z"/></g>
<g><path style="opacity:1" fill="#3b5188" d="M 65.5,159.5 C 65.5,160.833 65.5,162.167 65.5,163.5C 65.2961,167.22 66.2961,170.553 68.5,173.5C 69.1719,172.051 69.8386,170.718 70.5,169.5C 71.4289,172.412 72.7622,175.079 74.5,177.5C 73.8826,177.389 73.3826,177.056 73,176.5C 72.7508,177.624 72.2508,178.624 71.5,179.5C 69.4902,177.829 67.1569,177.162 64.5,177.5C 64.2865,179.144 64.6198,180.644 65.5,182C 63.9343,182.765 62.6009,182.598 61.5,181.5C 62.6491,181.209 63.3158,180.376 63.5,179C 62.2683,176.973 62.6016,175.64 64.5,175C 63.0203,173.701 62.3536,172.034 62.5,170C 62.6951,166.14 63.6951,162.64 65.5,159.5 Z"/></g>
<g><path style="opacity:1" fill="#809ad6" d="M 89.5,151.5 C 89.8333,152.833 90.1667,154.167 90.5,155.5C 89.7611,155.369 89.0944,155.536 88.5,156C 89.2291,158.058 90.2291,159.891 91.5,161.5C 92.343,163.173 93.6763,164.34 95.5,165C 98.8678,165.543 102.201,165.376 105.5,164.5C 103.238,165.823 100.904,167.157 98.5,168.5C 98.8627,169.183 99.1961,169.85 99.5,170.5C 98.5,170.5 97.5,170.5 96.5,170.5C 96.2627,171.791 96.596,172.791 97.5,173.5C 97.3285,175.492 97.9951,177.158 99.5,178.5C 105.629,181.024 112.295,182.191 119.5,182C 120.406,180.301 120.739,178.467 120.5,176.5C 124.723,175.069 126.723,172.069 126.5,167.5C 131.161,172.596 130.161,175.762 123.5,177C 124.728,177.779 125.728,178.779 126.5,180C 125.115,181.597 124.449,183.43 124.5,185.5C 120.309,185.785 116.142,185.785 112,185.5C 111.667,186.167 111.333,186.833 111,187.5C 108.373,186.686 106.04,185.353 104,183.5C 102.667,183.5 101.333,183.5 100,183.5C 99.6667,182.5 99.3333,181.5 99,180.5C 98.6667,180.833 98.3333,181.167 98,181.5C 97.6924,180.692 97.1924,180.025 96.5,179.5C 96.0488,174.904 94.8821,170.57 93,166.5C 90.5324,167.115 88.3657,166.282 86.5,164C 86.8333,163.667 87.1667,163.333 87.5,163C 82.8594,158.146 83.526,154.312 89.5,151.5 Z"/></g>
<g><path style="opacity:1" fill="#153a81" d="M 99.5,170.5 C 100.167,171.167 100.833,171.833 101.5,172.5C 102.058,173.79 103.058,174.623 104.5,175C 108.537,175.607 112.537,175.44 116.5,174.5C 116.833,175.167 117.167,175.833 117.5,176.5C 120.218,178.088 120.052,179.421 117,180.5C 112.688,178.864 108.188,178.031 103.5,178C 101.34,176.668 99.34,175.168 97.5,173.5C 96.596,172.791 96.2627,171.791 96.5,170.5C 97.5,170.5 98.5,170.5 99.5,170.5 Z"/></g>
<g><path style="opacity:1" fill="#233d54" d="M 150.5,149.5 C 152.067,150.681 152.901,152.347 153,154.5C 153.667,160.167 153.667,165.833 153,171.5C 150.324,176.524 148.491,181.857 147.5,187.5C 146.448,187.351 145.448,187.517 144.5,188C 143.616,189.72 142.283,190.886 140.5,191.5C 142.087,188.732 143.92,186.065 146,183.5C 147.511,180.204 148.677,176.871 149.5,173.5C 153.005,165.734 153.338,157.734 150.5,149.5 Z"/></g>
<g><path style="opacity:1" fill="#abe8c3" d="M 200.5,178.5 C 198.281,184.607 195.281,190.273 191.5,195.5C 191.5,194.5 191.5,193.5 191.5,192.5C 194.026,187.544 197.026,182.878 200.5,178.5 Z"/></g>
<g><path style="opacity:1" fill="#a4b7e2" d="M 124.5,185.5 C 128.1,184.527 130.767,182.36 132.5,179C 133.448,178.517 134.448,178.351 135.5,178.5C 135.261,176.533 135.594,174.699 136.5,173C 137.207,173.744 138.541,174.244 140.5,174.5C 140.684,177.321 139.351,178.988 136.5,179.5C 135.784,181.482 134.617,183.149 133,184.5C 132.667,184.167 132.333,183.833 132,183.5C 120.013,191.549 107.18,192.383 93.5,186C 87.6626,181.528 82.996,176.695 79.5,171.5C 79.8333,171.167 80.1667,170.833 80.5,170.5C 88.7783,181.293 99.6117,187.627 113,189.5C 116.974,189.118 120.807,187.785 124.5,185.5 Z"/></g>
<g><path style="opacity:1" fill="#5e7fca" d="M 97.5,173.5 C 99.34,175.168 101.34,176.668 103.5,178C 108.188,178.031 112.688,178.864 117,180.5C 120.052,179.421 120.218,178.088 117.5,176.5C 118.5,176.5 119.5,176.5 120.5,176.5C 120.739,178.467 120.406,180.301 119.5,182C 112.295,182.191 105.629,181.024 99.5,178.5C 97.9951,177.158 97.3285,175.492 97.5,173.5 Z"/></g>
<g><path style="opacity:1" fill="#3d77bc" d="M 101.5,172.5 C 106.539,174.402 111.539,175.069 116.5,174.5C 112.537,175.44 108.537,175.607 104.5,175C 103.058,174.623 102.058,173.79 101.5,172.5 Z"/></g>
<g><path style="opacity:1" fill="#8de6ae" d="M 17.5,175.5 C 19.4854,178.798 21.4854,182.131 23.5,185.5C 24.8611,187.85 26.1944,190.184 27.5,192.5C 26.6996,194.607 26.0329,196.774 25.5,199C 25.8333,199.833 26.1667,200.667 26.5,201.5C 27.3267,199.838 28.4933,198.505 30,197.5C 32.3102,199.137 33.8102,201.304 34.5,204C 32.8876,204.72 31.3876,204.554 30,203.5C 29.1253,206.215 27.2919,207.548 24.5,207.5C 24.5,207.167 24.5,206.833 24.5,206.5C 21.1577,201.648 17.9911,196.648 15,191.5C 14.2411,189.937 13.0744,188.937 11.5,188.5C 10.121,184.072 8.4543,179.739 6.5,175.5C 6.66667,174.833 6.83333,174.167 7,173.5C 8.24597,174.772 9.41263,175.105 10.5,174.5C 9.32436,171.038 7.6577,170.372 5.5,172.5C 4.34827,169.894 4.1816,167.227 5,164.5C 5.41395,164.043 5.91395,163.709 6.5,163.5C 7.16667,160.833 7.83333,158.167 8.5,155.5C 10.0752,162.364 12.0752,169.03 14.5,175.5C 15.5,175.5 16.5,175.5 17.5,175.5 Z"/></g>
<g><path style="opacity:1" fill="#1b393e" d="M 61.5,189.5 C 63.9029,189.448 66.2362,189.781 68.5,190.5C 71.9619,191.482 75.6286,191.815 79.5,191.5C 79.5,191.833 79.5,192.167 79.5,192.5C 84.6454,197.073 90.6454,200.073 97.5,201.5C 97.9175,202.222 98.5842,202.722 99.5,203C 112.736,205.003 125.07,202.836 136.5,196.5C 139.5,196.167 140.833,197.5 140.5,200.5C 134.759,200.652 133.092,203.319 135.5,208.5C 137.467,208.739 139.301,208.406 141,207.5C 141.192,205.423 141.692,203.423 142.5,201.5C 143.941,204.736 143.608,207.736 141.5,210.5C 137.842,211.047 134.842,212.714 132.5,215.5C 131.964,217.969 130.964,220.136 129.5,222C 130.126,222.75 130.626,223.584 131,224.5C 134.592,224.074 136.092,222.074 135.5,218.5C 137.989,218.702 140.323,218.202 142.5,217C 143.337,215.989 143.67,214.822 143.5,213.5C 145.672,214.206 147.672,215.206 149.5,216.5C 147.005,218.714 144.005,219.881 140.5,220C 139.011,221.468 137.677,222.968 136.5,224.5C 135.167,224.833 133.833,225.167 132.5,225.5C 113.182,229.368 93.8486,229.368 74.5,225.5C 65.1951,222.681 56.5285,218.514 48.5,213C 40.9689,206.635 33.9689,199.801 27.5,192.5C 26.1944,190.184 24.8611,187.85 23.5,185.5C 27.5123,186.113 29.5123,184.446 29.5,180.5C 30.675,180.281 31.675,180.614 32.5,181.5C 33.6313,185.797 36.298,188.631 40.5,190C 38.9632,191.11 38.2965,192.61 38.5,194.5C 39.9305,194.421 41.2638,194.754 42.5,195.5C 42.5416,191.675 44.375,189.342 48,188.5C 50.5324,190.1 53.1991,191.433 56,192.5C 57.1739,190.329 59.0072,189.329 61.5,189.5 Z"/></g>
<g><path style="opacity:1" fill="#6a7fb8" d="M 149.5,173.5 C 148.677,176.871 147.511,180.204 146,183.5C 143.92,186.065 142.087,188.732 140.5,191.5C 137.833,193.167 135.167,194.833 132.5,196.5C 133.087,195.233 133.087,194.233 132.5,193.5C 128.386,195.588 124.053,196.921 119.5,197.5C 119.158,196.662 118.492,196.328 117.5,196.5C 124.158,195.184 130.491,192.684 136.5,189C 141.67,184.585 146.004,179.418 149.5,173.5 Z"/></g>
<g><path style="opacity:1" fill="#5072b4" d="M 79.5,191.5 C 75.6286,191.815 71.9619,191.482 68.5,190.5C 69.4742,186.991 71.8075,185.824 75.5,187C 77.0414,188.371 78.3747,189.871 79.5,191.5 Z"/></g>
<g><path style="opacity:1" fill="#1f3d7b" d="M 41.5,165.5 C 43.4728,168.139 45.8061,170.473 48.5,172.5C 48.8564,174.19 49.8564,175.19 51.5,175.5C 54.1612,178.502 57.4945,180.502 61.5,181.5C 62.6009,182.598 63.9343,182.765 65.5,182C 64.6198,180.644 64.2865,179.144 64.5,177.5C 67.1569,177.162 69.4902,177.829 71.5,179.5C 72.2508,178.624 72.7508,177.624 73,176.5C 73.3826,177.056 73.8826,177.389 74.5,177.5C 79.6723,184.669 86.339,190.003 94.5,193.5C 91.8291,195.118 88.8291,195.785 85.5,195.5C 83.9468,193.615 81.9468,192.615 79.5,192.5C 79.5,192.167 79.5,191.833 79.5,191.5C 78.3747,189.871 77.0414,188.371 75.5,187C 71.8075,185.824 69.4742,186.991 68.5,190.5C 66.2362,189.781 63.9029,189.448 61.5,189.5C 55.8755,185.874 50.5421,181.874 45.5,177.5C 44.6416,174.765 43.1416,172.432 41,170.5C 40.2204,168.613 40.3871,166.946 41.5,165.5 Z"/></g>
<g><path style="opacity:1" fill="#aae3be" d="M 11.5,188.5 C 13.0744,188.937 14.2411,189.937 15,191.5C 17.9911,196.648 21.1577,201.648 24.5,206.5C 18.6998,201.569 14.3664,195.569 11.5,188.5 Z"/></g>
<g><path style="opacity:1" fill="#96e6b8" d="M 187.5,179.5 C 186.588,183.131 186.421,186.797 187,190.5C 187.414,190.043 187.914,189.709 188.5,189.5C 189.281,190.729 189.781,192.062 190,193.5C 190.383,192.944 190.883,192.611 191.5,192.5C 191.5,193.5 191.5,194.5 191.5,195.5C 189.109,200.279 185.776,204.279 181.5,207.5C 181.238,206.022 181.571,204.689 182.5,203.5C 184.766,201.805 186.432,199.639 187.5,197C 186.192,194.663 185.192,192.163 184.5,189.5C 181.712,193.868 178.045,197.202 173.5,199.5C 178.672,193.146 183.338,186.479 187.5,179.5 Z"/></g>
<g><path style="opacity:1" fill="#1c3857" d="M 79.5,192.5 C 81.9468,192.615 83.9468,193.615 85.5,195.5C 88.3135,197.07 91.3135,198.403 94.5,199.5C 95.7095,199.932 96.7095,200.599 97.5,201.5C 90.6454,200.073 84.6454,197.073 79.5,192.5 Z"/></g>
<g><path style="opacity:1" fill="#193d3c" d="M 191.5,167.5 C 190.368,171.562 189.035,175.562 187.5,179.5C 183.338,186.479 178.672,193.146 173.5,199.5C 172.833,199.833 172.167,200.167 171.5,200.5C 171.421,199.07 171.754,197.736 172.5,196.5C 170.944,194.299 169.777,194.299 169,196.5C 168.349,194.765 168.515,193.098 169.5,191.5C 170.002,190.479 170.668,190.312 171.5,191C 172.05,192.845 173.05,194.345 174.5,195.5C 176.045,193.457 177.379,191.29 178.5,189C 179.114,187.463 179.114,186.13 178.5,185C 182.095,184.878 183.761,183.044 183.5,179.5C 181.833,179.5 180.167,179.5 178.5,179.5C 178.167,174.008 178.167,169.008 178.5,164.5C 182.02,168.045 183.687,172.378 183.5,177.5C 184.5,177.5 185.5,177.5 186.5,177.5C 187.578,173.793 189.244,170.46 191.5,167.5 Z"/></g>
<g><path style="opacity:1" fill="#36538d" d="M 94.5,193.5 C 101.932,196.056 109.599,197.056 117.5,196.5C 118.492,196.328 119.158,196.662 119.5,197.5C 118.167,197.5 116.833,197.5 115.5,197.5C 109.359,197.9 103.359,197.233 97.5,195.5C 96.016,196.467 95.016,197.8 94.5,199.5C 91.3135,198.403 88.3135,197.07 85.5,195.5C 88.8291,195.785 91.8291,195.118 94.5,193.5 Z"/></g>
<g><path style="opacity:1" fill="#8098d3" d="M 132.5,196.5 C 122.504,201.753 111.837,203.419 100.5,201.5C 105.689,200.892 110.689,199.559 115.5,197.5C 116.833,197.5 118.167,197.5 119.5,197.5C 124.053,196.921 128.386,195.588 132.5,193.5C 133.087,194.233 133.087,195.233 132.5,196.5 Z"/></g>
<g><path style="opacity:1" fill="#5b78c5" d="M 115.5,197.5 C 110.689,199.559 105.689,200.892 100.5,201.5C 99.5,201.5 98.5,201.5 97.5,201.5C 96.7095,200.599 95.7095,199.932 94.5,199.5C 95.016,197.8 96.016,196.467 97.5,195.5C 103.359,197.233 109.359,197.9 115.5,197.5 Z"/></g>
<g><path style="opacity:1" fill="#25415d" d="M 140.5,191.5 C 139.516,193.48 138.183,195.147 136.5,196.5C 125.07,202.836 112.736,205.003 99.5,203C 98.5842,202.722 97.9175,202.222 97.5,201.5C 98.5,201.5 99.5,201.5 100.5,201.5C 111.837,203.419 122.504,201.753 132.5,196.5C 135.167,194.833 137.833,193.167 140.5,191.5 Z"/></g>
<g><path style="opacity:1" fill="#90eab4" d="M 181.5,207.5 C 180.167,207.5 178.833,207.5 177.5,207.5C 177.5,208.5 177.5,209.5 177.5,210.5C 175.42,211.044 173.42,211.878 171.5,213C 170.545,216.814 168.212,218.981 164.5,219.5C 164.719,220.675 164.386,221.675 163.5,222.5C 157.871,224.648 152.537,227.315 147.5,230.5C 146.094,229.332 144.928,229.665 144,231.5C 142.667,230.833 141.333,230.167 140,229.5C 139.425,233.242 137.259,234.908 133.5,234.5C 128.226,234.313 128.226,233.813 133.5,233C 131.117,232.935 130.45,232.102 131.5,230.5C 130.975,229.808 130.308,229.308 129.5,229C 133.166,227.667 136.833,226.334 140.5,225C 142.324,224.34 143.657,223.173 144.5,221.5C 150.016,218.911 155.016,215.578 159.5,211.5C 164.126,208.542 168.126,204.876 171.5,200.5C 172.167,200.167 172.833,199.833 173.5,199.5C 178.045,197.202 181.712,193.868 184.5,189.5C 185.192,192.163 186.192,194.663 187.5,197C 186.432,199.639 184.766,201.805 182.5,203.5C 181.571,204.689 181.238,206.022 181.5,207.5 Z"/></g>
<g><path style="opacity:1" fill="#92e4b2" d="M 27.5,192.5 C 33.9689,199.801 40.9689,206.635 48.5,213C 56.5285,218.514 65.1951,222.681 74.5,225.5C 93.8307,232.166 113.164,232.166 132.5,225.5C 133.833,225.167 135.167,224.833 136.5,224.5C 139.167,223.5 141.833,222.5 144.5,221.5C 143.657,223.173 142.324,224.34 140.5,225C 136.833,226.334 133.166,227.667 129.5,229C 130.308,229.308 130.975,229.808 131.5,230.5C 130.45,232.102 131.117,232.935 133.5,233C 128.226,233.813 128.226,234.313 133.5,234.5C 137.259,234.908 139.425,233.242 140,229.5C 141.333,230.167 142.667,230.833 144,231.5C 144.928,229.665 146.094,229.332 147.5,230.5C 152.537,227.315 157.871,224.648 163.5,222.5C 164.386,221.675 164.719,220.675 164.5,219.5C 168.212,218.981 170.545,216.814 171.5,213C 173.42,211.878 175.42,211.044 177.5,210.5C 177.5,209.5 177.5,208.5 177.5,207.5C 178.833,207.5 180.167,207.5 181.5,207.5C 164.524,227.404 142.857,238.738 116.5,241.5C 117.347,240.034 118.68,239.2 120.5,239C 123.5,238.667 126.5,238.333 129.5,238C 126.211,237.118 122.877,236.452 119.5,236C 121.778,235.014 124.111,234.18 126.5,233.5C 127.386,232.675 127.719,231.675 127.5,230.5C 113.509,231.4 99.5091,231.566 85.5,231C 78.5326,229.008 71.5326,227.175 64.5,225.5C 63.0878,226.806 61.4211,227.64 59.5,228C 60.354,229.022 61.354,229.855 62.5,230.5C 66.5817,228.721 70.0817,229.388 73,232.5C 74.073,231.72 75.2396,231.887 76.5,233C 74.5,233.333 72.5,233.667 70.5,234C 74.1706,236.436 78.004,236.27 82,233.5C 83.6095,234.147 85.1095,234.98 86.5,236C 84.1218,236.511 81.7885,237.178 79.5,238C 80.056,238.383 80.3893,238.883 80.5,239.5C 61.9474,235.892 45.9474,227.559 32.5,214.5C 29.2358,212.906 26.5691,210.573 24.5,207.5C 27.2919,207.548 29.1253,206.215 30,203.5C 31.3876,204.554 32.8876,204.72 34.5,204C 33.8102,201.304 32.3102,199.137 30,197.5C 28.4933,198.505 27.3267,199.838 26.5,201.5C 26.1667,200.667 25.8333,199.833 25.5,199C 26.0329,196.774 26.6996,194.607 27.5,192.5 Z"/></g>
<g><path style="opacity:1" fill="#1b483e" d="M 159.5,211.5 C 155.016,215.578 150.016,218.911 144.5,221.5C 141.833,222.5 139.167,223.5 136.5,224.5C 137.677,222.968 139.011,221.468 140.5,220C 144.005,219.881 147.005,218.714 149.5,216.5C 152.297,216.033 153.631,214.367 153.5,211.5C 155.5,211.5 157.5,211.5 159.5,211.5 Z"/></g>
<g><path style="opacity:1" fill="#8ee7ae" d="M 32.5,214.5 C 32.0766,213.735 31.7432,212.902 31.5,212C 33.4292,210.306 34.4292,208.139 34.5,205.5C 36.4835,205.383 38.1502,206.05 39.5,207.5C 40.1235,209.966 40.9568,212.299 42,214.5C 43.1096,212.963 44.6096,212.297 46.5,212.5C 45.7073,216.07 43.5407,218.403 40,219.5C 37.6108,217.601 35.1108,215.934 32.5,214.5 Z"/></g>
<g><path style="opacity:1" fill="#1a463c" d="M 74.5,225.5 C 93.8486,229.368 113.182,229.368 132.5,225.5C 113.164,232.166 93.8307,232.166 74.5,225.5 Z"/></g>
<g><path style="opacity:1" fill="#8ee6af" d="M 116.5,241.5 C 115.833,241.5 115.167,241.5 114.5,241.5C 103.112,241.638 91.7791,240.971 80.5,239.5C 80.3893,238.883 80.056,238.383 79.5,238C 81.7885,237.178 84.1218,236.511 86.5,236C 85.1095,234.98 83.6095,234.147 82,233.5C 78.004,236.27 74.1706,236.436 70.5,234C 72.5,233.667 74.5,233.333 76.5,233C 75.2396,231.887 74.073,231.72 73,232.5C 70.0817,229.388 66.5817,228.721 62.5,230.5C 61.354,229.855 60.354,229.022 59.5,228C 61.4211,227.64 63.0878,226.806 64.5,225.5C 71.5326,227.175 78.5326,229.008 85.5,231C 99.5091,231.566 113.509,231.4 127.5,230.5C 127.719,231.675 127.386,232.675 126.5,233.5C 124.111,234.18 121.778,235.014 119.5,236C 122.877,236.452 126.211,237.118 129.5,238C 126.5,238.333 123.5,238.667 120.5,239C 118.68,239.2 117.347,240.034 116.5,241.5 Z"/></g>
<g><path style="opacity:0.76" fill="#abe0bc" d="M 80.5,239.5 C 91.7791,240.971 103.112,241.638 114.5,241.5C 107.345,242.655 100.012,242.822 92.5,242C 88.2335,241.811 84.2335,240.977 80.5,239.5 Z"/></g>
</svg>
